G04 #@! TF.FileFunction,Copper,L1,Top,Signal*
%FSLAX46Y46*%
G04 Gerber Fmt 4.6, Leading zero omitted, Abs format (unit mm)*
G04 Created by KiCad (PCBNEW 4.0.7) date Thu Apr 19 20:54:26 2018*
%MOMM*%
%LPD*%
G01*
G04 APERTURE LIST*
%ADD10C,0.100000*%
%ADD11C,0.600000*%
%ADD12C,4.000000*%
%ADD13R,1.600000X1.600000*%
%ADD14C,1.600000*%
%ADD15R,1.200000X1.200000*%
%ADD16C,1.200000*%
%ADD17O,2.000000X2.000000*%
%ADD18R,2.000000X2.000000*%
%ADD19R,1.800000X1.800000*%
%ADD20O,1.800000X1.800000*%
%ADD21R,1.700000X1.700000*%
%ADD22O,1.700000X1.700000*%
%ADD23C,1.800000*%
%ADD24C,3.000000*%
%ADD25R,2.600000X2.600000*%
%ADD26C,2.600000*%
%ADD27C,0.250000*%
%ADD28C,0.254000*%
G04 APERTURE END LIST*
D10*
D11*
X106800000Y-119900000D03*
X108800000Y-119900000D03*
X110800000Y-119900000D03*
X112800000Y-119900000D03*
X114800000Y-119900000D03*
X106800000Y-121900000D03*
X108800000Y-121900000D03*
X110800000Y-121900000D03*
X112800000Y-121900000D03*
X114800000Y-121900000D03*
X106800000Y-123900000D03*
X108800000Y-123900000D03*
X110800000Y-123900000D03*
X112800000Y-123900000D03*
X114800000Y-123900000D03*
X106800000Y-125900000D03*
X108800000Y-125900000D03*
X110800000Y-125900000D03*
X112800000Y-125900000D03*
X114800000Y-125900000D03*
X106800000Y-127900000D03*
X108800000Y-127900000D03*
X110800000Y-127900000D03*
X112800000Y-127900000D03*
X114800000Y-127900000D03*
X150800000Y-99800000D03*
X148800000Y-99800000D03*
X146800000Y-99800000D03*
X144800000Y-99800000D03*
X142800000Y-99800000D03*
X140800000Y-99800000D03*
X138800000Y-99800000D03*
X136800000Y-99800000D03*
X134800000Y-99800000D03*
X132800000Y-99800000D03*
X190800000Y-69800000D03*
X188800000Y-69800000D03*
X186800000Y-69800000D03*
X184800000Y-69800000D03*
X182800000Y-69800000D03*
X190800000Y-67800000D03*
X188800000Y-67800000D03*
X186800000Y-67800000D03*
X184800000Y-67800000D03*
X182800000Y-67800000D03*
X190800000Y-65800000D03*
X188800000Y-65800000D03*
X186800000Y-65800000D03*
X184800000Y-65800000D03*
X182800000Y-65800000D03*
X190800000Y-63800000D03*
X188800000Y-63800000D03*
X186800000Y-63800000D03*
X184800000Y-63800000D03*
X182800000Y-63800000D03*
X190800000Y-61800000D03*
X188800000Y-61800000D03*
X186800000Y-61800000D03*
X184800000Y-61800000D03*
D12*
X184150000Y-126360000D03*
D13*
X182880000Y-86120000D03*
D14*
X182880000Y-88890000D03*
X182880000Y-91660000D03*
X182880000Y-94430000D03*
X182880000Y-97200000D03*
X182880000Y-99970000D03*
X182880000Y-102740000D03*
X182880000Y-105510000D03*
X182880000Y-108280000D03*
X182880000Y-111050000D03*
X182880000Y-113820000D03*
X182880000Y-116590000D03*
X182880000Y-119360000D03*
X185420000Y-87505000D03*
X185420000Y-90275000D03*
X185420000Y-93045000D03*
X185420000Y-95815000D03*
X185420000Y-98585000D03*
X185420000Y-101355000D03*
X185420000Y-104125000D03*
X185420000Y-106895000D03*
X185420000Y-109665000D03*
X185420000Y-112435000D03*
X185420000Y-115205000D03*
X185420000Y-117975000D03*
D12*
X184150000Y-79120000D03*
X105470000Y-55670000D03*
D13*
X106740000Y-73750000D03*
D14*
X106740000Y-70980000D03*
X106740000Y-68210000D03*
X106740000Y-65440000D03*
X106740000Y-62670000D03*
X104200000Y-72365000D03*
X104200000Y-69595000D03*
X104200000Y-66825000D03*
X104200000Y-64055000D03*
D12*
X105470000Y-80750000D03*
D13*
X157800000Y-86800000D03*
D14*
X157800000Y-91800000D03*
X171000000Y-86120000D03*
X173500000Y-86120000D03*
D15*
X170800000Y-74800000D03*
D16*
X172800000Y-74800000D03*
D17*
X158880000Y-73800000D03*
X153800000Y-78880000D03*
X158880000Y-78880000D03*
D18*
X153800000Y-73800000D03*
D19*
X174800000Y-80800000D03*
D20*
X172260000Y-80800000D03*
X169720000Y-80800000D03*
D21*
X166370000Y-131510000D03*
D22*
X163830000Y-131510000D03*
X161290000Y-131510000D03*
X158750000Y-131510000D03*
X156210000Y-131510000D03*
X153670000Y-131510000D03*
X151130000Y-131510000D03*
X148590000Y-131510000D03*
X146050000Y-131510000D03*
X143510000Y-131510000D03*
X140970000Y-131510000D03*
X138430000Y-131510000D03*
X135890000Y-131510000D03*
X133350000Y-131510000D03*
X130810000Y-131510000D03*
X128270000Y-131510000D03*
X125730000Y-131510000D03*
X123190000Y-131510000D03*
X120650000Y-131510000D03*
X118110000Y-131510000D03*
D21*
X166370000Y-103570000D03*
D22*
X163830000Y-103570000D03*
X161290000Y-103570000D03*
X158750000Y-103570000D03*
X156210000Y-103570000D03*
X153670000Y-103570000D03*
X151130000Y-103570000D03*
X148590000Y-103570000D03*
X146050000Y-103570000D03*
X143510000Y-103570000D03*
X140970000Y-103570000D03*
X138430000Y-103570000D03*
X135890000Y-103570000D03*
X133350000Y-103570000D03*
X130810000Y-103570000D03*
X128270000Y-103570000D03*
X125730000Y-103570000D03*
X123190000Y-103570000D03*
X120650000Y-103570000D03*
X118110000Y-103570000D03*
D21*
X166370000Y-136590000D03*
D22*
X163830000Y-136590000D03*
X161290000Y-136590000D03*
X158750000Y-136590000D03*
X156210000Y-136590000D03*
X153670000Y-136590000D03*
X151130000Y-136590000D03*
X148590000Y-136590000D03*
X146050000Y-136590000D03*
X143510000Y-136590000D03*
X140970000Y-136590000D03*
X138430000Y-136590000D03*
X135890000Y-136590000D03*
X133350000Y-136590000D03*
X130810000Y-136590000D03*
X128270000Y-136590000D03*
X125730000Y-136590000D03*
X123190000Y-136590000D03*
X120650000Y-136590000D03*
X118110000Y-136590000D03*
D21*
X166370000Y-108650000D03*
D22*
X163830000Y-108650000D03*
X161290000Y-108650000D03*
X158750000Y-108650000D03*
X156210000Y-108650000D03*
X153670000Y-108650000D03*
X151130000Y-108650000D03*
X148590000Y-108650000D03*
X146050000Y-108650000D03*
X143510000Y-108650000D03*
X140970000Y-108650000D03*
X138430000Y-108650000D03*
X135890000Y-108650000D03*
X133350000Y-108650000D03*
X130810000Y-108650000D03*
X128270000Y-108650000D03*
X125730000Y-108650000D03*
X123190000Y-108650000D03*
X120650000Y-108650000D03*
X118110000Y-108650000D03*
D21*
X111800000Y-135800000D03*
D22*
X111800000Y-133260000D03*
D21*
X107150000Y-133200000D03*
D22*
X107150000Y-135740000D03*
D23*
X106800000Y-91800000D03*
X99300000Y-90400000D03*
D24*
X143800000Y-55800000D03*
X143800000Y-80850000D03*
X118300000Y-80760000D03*
X118300000Y-55760000D03*
X118300000Y-60760000D03*
X118300000Y-75760000D03*
X158800000Y-46800000D03*
X178800000Y-46800000D03*
X173800000Y-66800000D03*
X163800000Y-66800000D03*
D25*
X101800000Y-98800000D03*
D26*
X101800000Y-106300000D03*
D11*
X182800000Y-61800000D03*
X152300000Y-129200000D03*
X152200000Y-134000000D03*
X150100000Y-134000000D03*
X175800000Y-122800000D03*
X175800000Y-91800000D03*
X168800000Y-77800000D03*
X172800000Y-77800000D03*
X174800000Y-122800000D03*
X174800000Y-91800000D03*
X166800000Y-95800000D03*
X161800000Y-100800000D03*
X160800000Y-100800000D03*
X180800000Y-92800000D03*
X167800000Y-105800000D03*
X154800000Y-105800000D03*
X149800000Y-111800000D03*
X153800000Y-111800000D03*
X150800000Y-112800000D03*
X154800000Y-112800000D03*
X173800000Y-94800000D03*
X173800000Y-122800000D03*
X172800000Y-97800000D03*
X172800000Y-122800000D03*
X171800000Y-122800000D03*
X171800000Y-99800000D03*
X143800000Y-117800000D03*
X141800000Y-115800000D03*
X169800000Y-107800000D03*
X147800000Y-118800000D03*
X170800000Y-108800000D03*
X144800000Y-119800000D03*
X167800000Y-114800000D03*
X141800000Y-120800000D03*
X138800000Y-121800000D03*
X167800000Y-115800000D03*
X178800000Y-93800000D03*
X135800000Y-122800000D03*
X180800000Y-97800000D03*
X133800000Y-123800000D03*
X180800000Y-103800000D03*
X129800000Y-124800000D03*
X180800000Y-108800000D03*
X125800000Y-125800000D03*
X180800000Y-114800000D03*
X120800000Y-128800000D03*
X158800000Y-94800000D03*
X161800000Y-97800000D03*
X102800000Y-112800000D03*
X108800000Y-65800000D03*
D27*
X175800000Y-122800000D02*
X175800000Y-91800000D01*
X172800000Y-77800000D02*
X168800000Y-77800000D01*
X174800000Y-122800000D02*
X174800000Y-91800000D01*
X161800000Y-100800000D02*
X166800000Y-95800000D01*
X171800000Y-89800000D02*
X160800000Y-100800000D01*
X177800000Y-89800000D02*
X171800000Y-89800000D01*
X180800000Y-92800000D02*
X177800000Y-89800000D01*
X167800000Y-105800000D02*
X154800000Y-105800000D01*
X153800000Y-111800000D02*
X149800000Y-111800000D01*
X154800000Y-112800000D02*
X150800000Y-112800000D01*
X173800000Y-122800000D02*
X173800000Y-94800000D01*
X172800000Y-122800000D02*
X172800000Y-97800000D01*
X171800000Y-99800000D02*
X171800000Y-122800000D01*
X143800000Y-117800000D02*
X141800000Y-115800000D01*
X148800000Y-118800000D02*
X147800000Y-118800000D01*
X160800000Y-118800000D02*
X154800000Y-118800000D01*
X169800000Y-109800000D02*
X160800000Y-118800000D01*
X169800000Y-107800000D02*
X169800000Y-109800000D01*
X148800000Y-118800000D02*
X154800000Y-118800000D01*
X154800000Y-119800000D02*
X144800000Y-119800000D01*
X154800000Y-119800000D02*
X160800000Y-119800000D01*
X170800000Y-109800000D02*
X160800000Y-119800000D01*
X170800000Y-109800000D02*
X170800000Y-108800000D01*
X161800000Y-120800000D02*
X141800000Y-120800000D01*
X161800000Y-120800000D02*
X167800000Y-114800000D01*
X147800000Y-121800000D02*
X138800000Y-121800000D01*
X161800000Y-121800000D02*
X147800000Y-121800000D01*
X147800000Y-121800000D02*
X142800000Y-121800000D01*
X167800000Y-115800000D02*
X161800000Y-121800000D01*
X167800000Y-124800000D02*
X174800000Y-124800000D01*
X174800000Y-124800000D02*
X176800000Y-122800000D01*
X167800000Y-124800000D02*
X165800000Y-122800000D01*
X178800000Y-93800000D02*
X176800000Y-95800000D01*
X176800000Y-122800000D02*
X176800000Y-95800000D01*
X165800000Y-122800000D02*
X135800000Y-122800000D01*
X167800000Y-125800000D02*
X174800000Y-125800000D01*
X174800000Y-125800000D02*
X177800000Y-122800000D01*
X167800000Y-125800000D02*
X165800000Y-123800000D01*
X177800000Y-100800000D02*
X177800000Y-122800000D01*
X180800000Y-97800000D02*
X177800000Y-100800000D01*
X165800000Y-123800000D02*
X133800000Y-123800000D01*
X167800000Y-126800000D02*
X174800000Y-126800000D01*
X174800000Y-126800000D02*
X178800000Y-122800000D01*
X167800000Y-126800000D02*
X165800000Y-124800000D01*
X178800000Y-105800000D02*
X178800000Y-122800000D01*
X180800000Y-103800000D02*
X178800000Y-105800000D01*
X165800000Y-124800000D02*
X129800000Y-124800000D01*
X167800000Y-127800000D02*
X174800000Y-127800000D01*
X174800000Y-127800000D02*
X179800000Y-122800000D01*
X166800000Y-126800000D02*
X165800000Y-125800000D01*
X179800000Y-109800000D02*
X179800000Y-122800000D01*
X180800000Y-108800000D02*
X179800000Y-109800000D01*
X167800000Y-127800000D02*
X166800000Y-126800000D01*
X165800000Y-125800000D02*
X125800000Y-125800000D01*
X167800000Y-128800000D02*
X174800000Y-128800000D01*
X174800000Y-128800000D02*
X180800000Y-122800000D01*
X165800000Y-126800000D02*
X122800000Y-126800000D01*
X180800000Y-114800000D02*
X180800000Y-122800000D01*
X167800000Y-128800000D02*
X165800000Y-126800000D01*
X122800000Y-126800000D02*
X120800000Y-128800000D01*
X108800000Y-96800000D02*
X112800000Y-92800000D01*
X112800000Y-80800000D02*
X108800000Y-76800000D01*
X112800000Y-92800000D02*
X112800000Y-80800000D01*
X161800000Y-97800000D02*
X158800000Y-94800000D01*
X102800000Y-112800000D02*
X108800000Y-106800000D01*
X108800000Y-106800000D02*
X108800000Y-96800000D01*
X108800000Y-76800000D02*
X108800000Y-65800000D01*
D28*
G36*
X152673000Y-51800000D02*
X152681685Y-51846159D01*
X152708965Y-51888553D01*
X152750590Y-51916994D01*
X152800000Y-51927000D01*
X193673000Y-51927000D01*
X193673000Y-130673000D01*
X184800000Y-130673000D01*
X184750590Y-130683006D01*
X184708965Y-130711447D01*
X184681685Y-130753841D01*
X184673000Y-130800000D01*
X184673000Y-139673000D01*
X104927000Y-139673000D01*
X104927000Y-135740000D01*
X105635907Y-135740000D01*
X105748946Y-136308285D01*
X106070853Y-136790054D01*
X106552622Y-137111961D01*
X107120907Y-137225000D01*
X107179093Y-137225000D01*
X107747378Y-137111961D01*
X108229147Y-136790054D01*
X108551054Y-136308285D01*
X108664093Y-135740000D01*
X108551054Y-135171715D01*
X108402910Y-134950000D01*
X110302560Y-134950000D01*
X110302560Y-136650000D01*
X110346838Y-136885317D01*
X110485910Y-137101441D01*
X110698110Y-137246431D01*
X110950000Y-137297440D01*
X112650000Y-137297440D01*
X112885317Y-137253162D01*
X113101441Y-137114090D01*
X113246431Y-136901890D01*
X113297440Y-136650000D01*
X113297440Y-136560907D01*
X116625000Y-136560907D01*
X116625000Y-136619093D01*
X116738039Y-137187378D01*
X117059946Y-137669147D01*
X117541715Y-137991054D01*
X118110000Y-138104093D01*
X118678285Y-137991054D01*
X119160054Y-137669147D01*
X119380000Y-137339974D01*
X119599946Y-137669147D01*
X120081715Y-137991054D01*
X120650000Y-138104093D01*
X121218285Y-137991054D01*
X121700054Y-137669147D01*
X121920000Y-137339974D01*
X122139946Y-137669147D01*
X122621715Y-137991054D01*
X123190000Y-138104093D01*
X123758285Y-137991054D01*
X124240054Y-137669147D01*
X124460000Y-137339974D01*
X124679946Y-137669147D01*
X125161715Y-137991054D01*
X125730000Y-138104093D01*
X126298285Y-137991054D01*
X126780054Y-137669147D01*
X127000000Y-137339974D01*
X127219946Y-137669147D01*
X127701715Y-137991054D01*
X128270000Y-138104093D01*
X128838285Y-137991054D01*
X129320054Y-137669147D01*
X129540000Y-137339974D01*
X129759946Y-137669147D01*
X130241715Y-137991054D01*
X130810000Y-138104093D01*
X131378285Y-137991054D01*
X131860054Y-137669147D01*
X132080000Y-137339974D01*
X132299946Y-137669147D01*
X132781715Y-137991054D01*
X133350000Y-138104093D01*
X133918285Y-137991054D01*
X134400054Y-137669147D01*
X134620000Y-137339974D01*
X134839946Y-137669147D01*
X135321715Y-137991054D01*
X135890000Y-138104093D01*
X136458285Y-137991054D01*
X136940054Y-137669147D01*
X137160000Y-137339974D01*
X137379946Y-137669147D01*
X137861715Y-137991054D01*
X138430000Y-138104093D01*
X138998285Y-137991054D01*
X139480054Y-137669147D01*
X139700000Y-137339974D01*
X139919946Y-137669147D01*
X140401715Y-137991054D01*
X140970000Y-138104093D01*
X141538285Y-137991054D01*
X142020054Y-137669147D01*
X142240000Y-137339974D01*
X142459946Y-137669147D01*
X142941715Y-137991054D01*
X143510000Y-138104093D01*
X144078285Y-137991054D01*
X144560054Y-137669147D01*
X144780000Y-137339974D01*
X144999946Y-137669147D01*
X145481715Y-137991054D01*
X146050000Y-138104093D01*
X146618285Y-137991054D01*
X147100054Y-137669147D01*
X147320000Y-137339974D01*
X147539946Y-137669147D01*
X148021715Y-137991054D01*
X148590000Y-138104093D01*
X149158285Y-137991054D01*
X149640054Y-137669147D01*
X149867702Y-137328447D01*
X149934817Y-137471358D01*
X150363076Y-137861645D01*
X150773110Y-138031476D01*
X151003000Y-137910155D01*
X151003000Y-136717000D01*
X150983000Y-136717000D01*
X150983000Y-136463000D01*
X151003000Y-136463000D01*
X151003000Y-135269845D01*
X151257000Y-135269845D01*
X151257000Y-136463000D01*
X151277000Y-136463000D01*
X151277000Y-136717000D01*
X151257000Y-136717000D01*
X151257000Y-137910155D01*
X151486890Y-138031476D01*
X151896924Y-137861645D01*
X152325183Y-137471358D01*
X152392298Y-137328447D01*
X152619946Y-137669147D01*
X153101715Y-137991054D01*
X153670000Y-138104093D01*
X154238285Y-137991054D01*
X154720054Y-137669147D01*
X154940000Y-137339974D01*
X155159946Y-137669147D01*
X155641715Y-137991054D01*
X156210000Y-138104093D01*
X156778285Y-137991054D01*
X157260054Y-137669147D01*
X157480000Y-137339974D01*
X157699946Y-137669147D01*
X158181715Y-137991054D01*
X158750000Y-138104093D01*
X159318285Y-137991054D01*
X159800054Y-137669147D01*
X160020000Y-137339974D01*
X160239946Y-137669147D01*
X160721715Y-137991054D01*
X161290000Y-138104093D01*
X161858285Y-137991054D01*
X162340054Y-137669147D01*
X162560000Y-137339974D01*
X162779946Y-137669147D01*
X163261715Y-137991054D01*
X163830000Y-138104093D01*
X164398285Y-137991054D01*
X164880054Y-137669147D01*
X164909403Y-137625223D01*
X164981673Y-137799698D01*
X165160301Y-137978327D01*
X165393690Y-138075000D01*
X166084250Y-138075000D01*
X166243000Y-137916250D01*
X166243000Y-136717000D01*
X166497000Y-136717000D01*
X166497000Y-137916250D01*
X166655750Y-138075000D01*
X167346310Y-138075000D01*
X167579699Y-137978327D01*
X167758327Y-137799698D01*
X167855000Y-137566309D01*
X167855000Y-136875750D01*
X167696250Y-136717000D01*
X166497000Y-136717000D01*
X166243000Y-136717000D01*
X166223000Y-136717000D01*
X166223000Y-136463000D01*
X166243000Y-136463000D01*
X166243000Y-135263750D01*
X166497000Y-135263750D01*
X166497000Y-136463000D01*
X167696250Y-136463000D01*
X167855000Y-136304250D01*
X167855000Y-135613691D01*
X167758327Y-135380302D01*
X167579699Y-135201673D01*
X167346310Y-135105000D01*
X166655750Y-135105000D01*
X166497000Y-135263750D01*
X166243000Y-135263750D01*
X166084250Y-135105000D01*
X165393690Y-135105000D01*
X165160301Y-135201673D01*
X164981673Y-135380302D01*
X164909403Y-135554777D01*
X164880054Y-135510853D01*
X164398285Y-135188946D01*
X163830000Y-135075907D01*
X163261715Y-135188946D01*
X162779946Y-135510853D01*
X162560000Y-135840026D01*
X162340054Y-135510853D01*
X161858285Y-135188946D01*
X161290000Y-135075907D01*
X160721715Y-135188946D01*
X160239946Y-135510853D01*
X160020000Y-135840026D01*
X159800054Y-135510853D01*
X159318285Y-135188946D01*
X158750000Y-135075907D01*
X158181715Y-135188946D01*
X157699946Y-135510853D01*
X157480000Y-135840026D01*
X157260054Y-135510853D01*
X156778285Y-135188946D01*
X156210000Y-135075907D01*
X155641715Y-135188946D01*
X155159946Y-135510853D01*
X154940000Y-135840026D01*
X154720054Y-135510853D01*
X154238285Y-135188946D01*
X153670000Y-135075907D01*
X153101715Y-135188946D01*
X152619946Y-135510853D01*
X152392298Y-135851553D01*
X152325183Y-135708642D01*
X151896924Y-135318355D01*
X151486890Y-135148524D01*
X151257000Y-135269845D01*
X151003000Y-135269845D01*
X150773110Y-135148524D01*
X150363076Y-135318355D01*
X149934817Y-135708642D01*
X149867702Y-135851553D01*
X149640054Y-135510853D01*
X149158285Y-135188946D01*
X148590000Y-135075907D01*
X148021715Y-135188946D01*
X147539946Y-135510853D01*
X147320000Y-135840026D01*
X147100054Y-135510853D01*
X146618285Y-135188946D01*
X146050000Y-135075907D01*
X145481715Y-135188946D01*
X144999946Y-135510853D01*
X144780000Y-135840026D01*
X144560054Y-135510853D01*
X144078285Y-135188946D01*
X143510000Y-135075907D01*
X142941715Y-135188946D01*
X142459946Y-135510853D01*
X142240000Y-135840026D01*
X142020054Y-135510853D01*
X141538285Y-135188946D01*
X140970000Y-135075907D01*
X140401715Y-135188946D01*
X139919946Y-135510853D01*
X139700000Y-135840026D01*
X139480054Y-135510853D01*
X138998285Y-135188946D01*
X138430000Y-135075907D01*
X137861715Y-135188946D01*
X137379946Y-135510853D01*
X137160000Y-135840026D01*
X136940054Y-135510853D01*
X136458285Y-135188946D01*
X135890000Y-135075907D01*
X135321715Y-135188946D01*
X134839946Y-135510853D01*
X134620000Y-135840026D01*
X134400054Y-135510853D01*
X133918285Y-135188946D01*
X133350000Y-135075907D01*
X132781715Y-135188946D01*
X132299946Y-135510853D01*
X132080000Y-135840026D01*
X131860054Y-135510853D01*
X131378285Y-135188946D01*
X130810000Y-135075907D01*
X130241715Y-135188946D01*
X129759946Y-135510853D01*
X129540000Y-135840026D01*
X129320054Y-135510853D01*
X128838285Y-135188946D01*
X128270000Y-135075907D01*
X127701715Y-135188946D01*
X127219946Y-135510853D01*
X127000000Y-135840026D01*
X126780054Y-135510853D01*
X126298285Y-135188946D01*
X125730000Y-135075907D01*
X125161715Y-135188946D01*
X124679946Y-135510853D01*
X124460000Y-135840026D01*
X124240054Y-135510853D01*
X123758285Y-135188946D01*
X123190000Y-135075907D01*
X122621715Y-135188946D01*
X122139946Y-135510853D01*
X121920000Y-135840026D01*
X121700054Y-135510853D01*
X121218285Y-135188946D01*
X120650000Y-135075907D01*
X120081715Y-135188946D01*
X119599946Y-135510853D01*
X119380000Y-135840026D01*
X119160054Y-135510853D01*
X118678285Y-135188946D01*
X118110000Y-135075907D01*
X117541715Y-135188946D01*
X117059946Y-135510853D01*
X116738039Y-135992622D01*
X116625000Y-136560907D01*
X113297440Y-136560907D01*
X113297440Y-134950000D01*
X113253162Y-134714683D01*
X113114090Y-134498559D01*
X112901890Y-134353569D01*
X112793893Y-134331699D01*
X113071645Y-134026924D01*
X113241476Y-133616890D01*
X113120155Y-133387000D01*
X111927000Y-133387000D01*
X111927000Y-133407000D01*
X111673000Y-133407000D01*
X111673000Y-133387000D01*
X110479845Y-133387000D01*
X110358524Y-133616890D01*
X110528355Y-134026924D01*
X110804501Y-134329937D01*
X110714683Y-134346838D01*
X110498559Y-134485910D01*
X110353569Y-134698110D01*
X110302560Y-134950000D01*
X108402910Y-134950000D01*
X108229147Y-134689946D01*
X108187548Y-134662150D01*
X108235317Y-134653162D01*
X108451441Y-134514090D01*
X108596431Y-134301890D01*
X108647440Y-134050000D01*
X108647440Y-132903110D01*
X110358524Y-132903110D01*
X110479845Y-133133000D01*
X111673000Y-133133000D01*
X111673000Y-131939181D01*
X111927000Y-131939181D01*
X111927000Y-133133000D01*
X113120155Y-133133000D01*
X113241476Y-132903110D01*
X113071645Y-132493076D01*
X112681358Y-132064817D01*
X112156892Y-131818514D01*
X111927000Y-131939181D01*
X111673000Y-131939181D01*
X111443108Y-131818514D01*
X110918642Y-132064817D01*
X110528355Y-132493076D01*
X110358524Y-132903110D01*
X108647440Y-132903110D01*
X108647440Y-132350000D01*
X108603162Y-132114683D01*
X108464090Y-131898559D01*
X108251890Y-131753569D01*
X108000000Y-131702560D01*
X106300000Y-131702560D01*
X106064683Y-131746838D01*
X105848559Y-131885910D01*
X105703569Y-132098110D01*
X105652560Y-132350000D01*
X105652560Y-134050000D01*
X105696838Y-134285317D01*
X105835910Y-134501441D01*
X106048110Y-134646431D01*
X106115541Y-134660086D01*
X106070853Y-134689946D01*
X105748946Y-135171715D01*
X105635907Y-135740000D01*
X104927000Y-135740000D01*
X104927000Y-131480907D01*
X116625000Y-131480907D01*
X116625000Y-131539093D01*
X116738039Y-132107378D01*
X117059946Y-132589147D01*
X117541715Y-132911054D01*
X118110000Y-133024093D01*
X118678285Y-132911054D01*
X119160054Y-132589147D01*
X119380000Y-132259974D01*
X119599946Y-132589147D01*
X120081715Y-132911054D01*
X120650000Y-133024093D01*
X121218285Y-132911054D01*
X121700054Y-132589147D01*
X121920000Y-132259974D01*
X122139946Y-132589147D01*
X122621715Y-132911054D01*
X123190000Y-133024093D01*
X123758285Y-132911054D01*
X124240054Y-132589147D01*
X124460000Y-132259974D01*
X124679946Y-132589147D01*
X125161715Y-132911054D01*
X125730000Y-133024093D01*
X126298285Y-132911054D01*
X126780054Y-132589147D01*
X127000000Y-132259974D01*
X127219946Y-132589147D01*
X127701715Y-132911054D01*
X128270000Y-133024093D01*
X128838285Y-132911054D01*
X129320054Y-132589147D01*
X129540000Y-132259974D01*
X129759946Y-132589147D01*
X130241715Y-132911054D01*
X130810000Y-133024093D01*
X131378285Y-132911054D01*
X131860054Y-132589147D01*
X132080000Y-132259974D01*
X132299946Y-132589147D01*
X132781715Y-132911054D01*
X133350000Y-133024093D01*
X133918285Y-132911054D01*
X134400054Y-132589147D01*
X134620000Y-132259974D01*
X134839946Y-132589147D01*
X135321715Y-132911054D01*
X135890000Y-133024093D01*
X136458285Y-132911054D01*
X136940054Y-132589147D01*
X137160000Y-132259974D01*
X137379946Y-132589147D01*
X137861715Y-132911054D01*
X138430000Y-133024093D01*
X138998285Y-132911054D01*
X139480054Y-132589147D01*
X139700000Y-132259974D01*
X139919946Y-132589147D01*
X140401715Y-132911054D01*
X140970000Y-133024093D01*
X141538285Y-132911054D01*
X142020054Y-132589147D01*
X142240000Y-132259974D01*
X142459946Y-132589147D01*
X142941715Y-132911054D01*
X143510000Y-133024093D01*
X144078285Y-132911054D01*
X144560054Y-132589147D01*
X144780000Y-132259974D01*
X144999946Y-132589147D01*
X145481715Y-132911054D01*
X146050000Y-133024093D01*
X146618285Y-132911054D01*
X147100054Y-132589147D01*
X147320000Y-132259974D01*
X147539946Y-132589147D01*
X148021715Y-132911054D01*
X148590000Y-133024093D01*
X149158285Y-132911054D01*
X149640054Y-132589147D01*
X149867702Y-132248447D01*
X149934817Y-132391358D01*
X150363076Y-132781645D01*
X150773110Y-132951476D01*
X151003000Y-132830155D01*
X151003000Y-131637000D01*
X150983000Y-131637000D01*
X150983000Y-131383000D01*
X151003000Y-131383000D01*
X151003000Y-130189845D01*
X151257000Y-130189845D01*
X151257000Y-131383000D01*
X151277000Y-131383000D01*
X151277000Y-131637000D01*
X151257000Y-131637000D01*
X151257000Y-132830155D01*
X151486890Y-132951476D01*
X151896924Y-132781645D01*
X152325183Y-132391358D01*
X152392298Y-132248447D01*
X152619946Y-132589147D01*
X153101715Y-132911054D01*
X153670000Y-133024093D01*
X154238285Y-132911054D01*
X154720054Y-132589147D01*
X154940000Y-132259974D01*
X155159946Y-132589147D01*
X155641715Y-132911054D01*
X156210000Y-133024093D01*
X156778285Y-132911054D01*
X157260054Y-132589147D01*
X157480000Y-132259974D01*
X157699946Y-132589147D01*
X158181715Y-132911054D01*
X158750000Y-133024093D01*
X159318285Y-132911054D01*
X159800054Y-132589147D01*
X160020000Y-132259974D01*
X160239946Y-132589147D01*
X160721715Y-132911054D01*
X161290000Y-133024093D01*
X161858285Y-132911054D01*
X162340054Y-132589147D01*
X162560000Y-132259974D01*
X162779946Y-132589147D01*
X163261715Y-132911054D01*
X163830000Y-133024093D01*
X164398285Y-132911054D01*
X164880054Y-132589147D01*
X164909403Y-132545223D01*
X164981673Y-132719698D01*
X165160301Y-132898327D01*
X165393690Y-132995000D01*
X166084250Y-132995000D01*
X166243000Y-132836250D01*
X166243000Y-131637000D01*
X166497000Y-131637000D01*
X166497000Y-132836250D01*
X166655750Y-132995000D01*
X167346310Y-132995000D01*
X167579699Y-132898327D01*
X167758327Y-132719698D01*
X167855000Y-132486309D01*
X167855000Y-131795750D01*
X167696250Y-131637000D01*
X166497000Y-131637000D01*
X166243000Y-131637000D01*
X166223000Y-131637000D01*
X166223000Y-131383000D01*
X166243000Y-131383000D01*
X166243000Y-130183750D01*
X166497000Y-130183750D01*
X166497000Y-131383000D01*
X167696250Y-131383000D01*
X167855000Y-131224250D01*
X167855000Y-130533691D01*
X167758327Y-130300302D01*
X167579699Y-130121673D01*
X167346310Y-130025000D01*
X166655750Y-130025000D01*
X166497000Y-130183750D01*
X166243000Y-130183750D01*
X166084250Y-130025000D01*
X165393690Y-130025000D01*
X165160301Y-130121673D01*
X164981673Y-130300302D01*
X164909403Y-130474777D01*
X164880054Y-130430853D01*
X164398285Y-130108946D01*
X163830000Y-129995907D01*
X163261715Y-130108946D01*
X162779946Y-130430853D01*
X162560000Y-130760026D01*
X162340054Y-130430853D01*
X161858285Y-130108946D01*
X161290000Y-129995907D01*
X160721715Y-130108946D01*
X160239946Y-130430853D01*
X160020000Y-130760026D01*
X159800054Y-130430853D01*
X159318285Y-130108946D01*
X158750000Y-129995907D01*
X158181715Y-130108946D01*
X157699946Y-130430853D01*
X157480000Y-130760026D01*
X157260054Y-130430853D01*
X156778285Y-130108946D01*
X156210000Y-129995907D01*
X155641715Y-130108946D01*
X155159946Y-130430853D01*
X154940000Y-130760026D01*
X154720054Y-130430853D01*
X154238285Y-130108946D01*
X153670000Y-129995907D01*
X153101715Y-130108946D01*
X152619946Y-130430853D01*
X152392298Y-130771553D01*
X152325183Y-130628642D01*
X151896924Y-130238355D01*
X151486890Y-130068524D01*
X151257000Y-130189845D01*
X151003000Y-130189845D01*
X150773110Y-130068524D01*
X150363076Y-130238355D01*
X149934817Y-130628642D01*
X149867702Y-130771553D01*
X149640054Y-130430853D01*
X149158285Y-130108946D01*
X148590000Y-129995907D01*
X148021715Y-130108946D01*
X147539946Y-130430853D01*
X147320000Y-130760026D01*
X147100054Y-130430853D01*
X146618285Y-130108946D01*
X146050000Y-129995907D01*
X145481715Y-130108946D01*
X144999946Y-130430853D01*
X144780000Y-130760026D01*
X144560054Y-130430853D01*
X144078285Y-130108946D01*
X143510000Y-129995907D01*
X142941715Y-130108946D01*
X142459946Y-130430853D01*
X142240000Y-130760026D01*
X142020054Y-130430853D01*
X141538285Y-130108946D01*
X140970000Y-129995907D01*
X140401715Y-130108946D01*
X139919946Y-130430853D01*
X139700000Y-130760026D01*
X139480054Y-130430853D01*
X138998285Y-130108946D01*
X138430000Y-129995907D01*
X137861715Y-130108946D01*
X137379946Y-130430853D01*
X137160000Y-130760026D01*
X136940054Y-130430853D01*
X136458285Y-130108946D01*
X135890000Y-129995907D01*
X135321715Y-130108946D01*
X134839946Y-130430853D01*
X134620000Y-130760026D01*
X134400054Y-130430853D01*
X133918285Y-130108946D01*
X133350000Y-129995907D01*
X132781715Y-130108946D01*
X132299946Y-130430853D01*
X132080000Y-130760026D01*
X131860054Y-130430853D01*
X131378285Y-130108946D01*
X130810000Y-129995907D01*
X130241715Y-130108946D01*
X129759946Y-130430853D01*
X129540000Y-130760026D01*
X129320054Y-130430853D01*
X128838285Y-130108946D01*
X128270000Y-129995907D01*
X127701715Y-130108946D01*
X127219946Y-130430853D01*
X127000000Y-130760026D01*
X126780054Y-130430853D01*
X126298285Y-130108946D01*
X125730000Y-129995907D01*
X125161715Y-130108946D01*
X124679946Y-130430853D01*
X124460000Y-130760026D01*
X124240054Y-130430853D01*
X123758285Y-130108946D01*
X123190000Y-129995907D01*
X122621715Y-130108946D01*
X122139946Y-130430853D01*
X121920000Y-130760026D01*
X121700054Y-130430853D01*
X121218285Y-130108946D01*
X120650000Y-129995907D01*
X120081715Y-130108946D01*
X119599946Y-130430853D01*
X119380000Y-130760026D01*
X119160054Y-130430853D01*
X118678285Y-130108946D01*
X118110000Y-129995907D01*
X117541715Y-130108946D01*
X117059946Y-130430853D01*
X116738039Y-130912622D01*
X116625000Y-131480907D01*
X104927000Y-131480907D01*
X104927000Y-130800000D01*
X104916994Y-130750590D01*
X104888553Y-130708965D01*
X104846159Y-130681685D01*
X104800000Y-130673000D01*
X95927000Y-130673000D01*
X95927000Y-128985167D01*
X119864838Y-128985167D01*
X120006883Y-129328943D01*
X120269673Y-129592192D01*
X120613201Y-129734838D01*
X120985167Y-129735162D01*
X121328943Y-129593117D01*
X121592192Y-129330327D01*
X121734838Y-128986799D01*
X121734879Y-128939923D01*
X123114802Y-127560000D01*
X165485198Y-127560000D01*
X167262599Y-129337401D01*
X167509161Y-129502148D01*
X167800000Y-129560000D01*
X174800000Y-129560000D01*
X175090839Y-129502148D01*
X175337401Y-129337401D01*
X177792968Y-126881834D01*
X181514543Y-126881834D01*
X181914853Y-127850658D01*
X182655443Y-128592542D01*
X183623567Y-128994542D01*
X184671834Y-128995457D01*
X185640658Y-128595147D01*
X186382542Y-127854557D01*
X186784542Y-126886433D01*
X186785457Y-125838166D01*
X186385147Y-124869342D01*
X185644557Y-124127458D01*
X184676433Y-123725458D01*
X183628166Y-123724543D01*
X182659342Y-124124853D01*
X181917458Y-124865443D01*
X181515458Y-125833567D01*
X181514543Y-126881834D01*
X177792968Y-126881834D01*
X181337401Y-123337401D01*
X181502148Y-123090840D01*
X181560000Y-122800000D01*
X181560000Y-120367745D01*
X182051861Y-120367745D01*
X182125995Y-120613864D01*
X182663223Y-120806965D01*
X183233454Y-120779778D01*
X183634005Y-120613864D01*
X183708139Y-120367745D01*
X182880000Y-119539605D01*
X182051861Y-120367745D01*
X181560000Y-120367745D01*
X181560000Y-119954339D01*
X181626136Y-120114005D01*
X181872255Y-120188139D01*
X182700395Y-119360000D01*
X181872255Y-118531861D01*
X181626136Y-118605995D01*
X181560000Y-118789993D01*
X181560000Y-117153109D01*
X181662757Y-117401800D01*
X182066077Y-117805824D01*
X182458060Y-117968590D01*
X182125995Y-118106136D01*
X182051861Y-118352255D01*
X182880000Y-119180395D01*
X183708139Y-118352255D01*
X183634005Y-118106136D01*
X183278062Y-117978196D01*
X183691800Y-117807243D01*
X184095824Y-117403923D01*
X184314750Y-116876691D01*
X184315248Y-116305813D01*
X184097243Y-115778200D01*
X183693923Y-115374176D01*
X183286150Y-115204854D01*
X183691800Y-115037243D01*
X184095824Y-114633923D01*
X184314750Y-114106691D01*
X184315248Y-113535813D01*
X184097243Y-113008200D01*
X183693923Y-112604176D01*
X183286150Y-112434854D01*
X183691800Y-112267243D01*
X184095824Y-111863923D01*
X184314750Y-111336691D01*
X184315248Y-110765813D01*
X184097243Y-110238200D01*
X183693923Y-109834176D01*
X183286150Y-109664854D01*
X183691800Y-109497243D01*
X184095824Y-109093923D01*
X184314750Y-108566691D01*
X184315248Y-107995813D01*
X184097243Y-107468200D01*
X183693923Y-107064176D01*
X183286150Y-106894854D01*
X183691800Y-106727243D01*
X184095824Y-106323923D01*
X184314750Y-105796691D01*
X184315248Y-105225813D01*
X184097243Y-104698200D01*
X183693923Y-104294176D01*
X183286150Y-104124854D01*
X183691800Y-103957243D01*
X184095824Y-103553923D01*
X184314750Y-103026691D01*
X184315248Y-102455813D01*
X184097243Y-101928200D01*
X183693923Y-101524176D01*
X183286150Y-101354854D01*
X183691800Y-101187243D01*
X184095824Y-100783923D01*
X184314750Y-100256691D01*
X184315248Y-99685813D01*
X184097243Y-99158200D01*
X183693923Y-98754176D01*
X183286150Y-98584854D01*
X183691800Y-98417243D01*
X184095824Y-98013923D01*
X184314750Y-97486691D01*
X184315248Y-96915813D01*
X184097243Y-96388200D01*
X183693923Y-95984176D01*
X183286150Y-95814854D01*
X183691800Y-95647243D01*
X184095824Y-95243923D01*
X184314750Y-94716691D01*
X184315248Y-94145813D01*
X184097243Y-93618200D01*
X183693923Y-93214176D01*
X183286150Y-93044854D01*
X183691800Y-92877243D01*
X184095824Y-92473923D01*
X184314750Y-91946691D01*
X184315248Y-91375813D01*
X184097243Y-90848200D01*
X183693923Y-90444176D01*
X183286150Y-90274854D01*
X183691800Y-90107243D01*
X184095824Y-89703923D01*
X184314750Y-89176691D01*
X184315248Y-88605813D01*
X184097243Y-88078200D01*
X183693923Y-87674176D01*
X183436874Y-87567440D01*
X183680000Y-87567440D01*
X183915317Y-87523162D01*
X183985023Y-87478307D01*
X183984752Y-87789187D01*
X184202757Y-88316800D01*
X184606077Y-88720824D01*
X185013850Y-88890146D01*
X184608200Y-89057757D01*
X184204176Y-89461077D01*
X183985250Y-89988309D01*
X183984752Y-90559187D01*
X184202757Y-91086800D01*
X184606077Y-91490824D01*
X185013850Y-91660146D01*
X184608200Y-91827757D01*
X184204176Y-92231077D01*
X183985250Y-92758309D01*
X183984752Y-93329187D01*
X184202757Y-93856800D01*
X184606077Y-94260824D01*
X185013850Y-94430146D01*
X184608200Y-94597757D01*
X184204176Y-95001077D01*
X183985250Y-95528309D01*
X183984752Y-96099187D01*
X184202757Y-96626800D01*
X184606077Y-97030824D01*
X185013850Y-97200146D01*
X184608200Y-97367757D01*
X184204176Y-97771077D01*
X183985250Y-98298309D01*
X183984752Y-98869187D01*
X184202757Y-99396800D01*
X184606077Y-99800824D01*
X185013850Y-99970146D01*
X184608200Y-100137757D01*
X184204176Y-100541077D01*
X183985250Y-101068309D01*
X183984752Y-101639187D01*
X184202757Y-102166800D01*
X184606077Y-102570824D01*
X185013850Y-102740146D01*
X184608200Y-102907757D01*
X184204176Y-103311077D01*
X183985250Y-103838309D01*
X183984752Y-104409187D01*
X184202757Y-104936800D01*
X184606077Y-105340824D01*
X185013850Y-105510146D01*
X184608200Y-105677757D01*
X184204176Y-106081077D01*
X183985250Y-106608309D01*
X183984752Y-107179187D01*
X184202757Y-107706800D01*
X184606077Y-108110824D01*
X185013850Y-108280146D01*
X184608200Y-108447757D01*
X184204176Y-108851077D01*
X183985250Y-109378309D01*
X183984752Y-109949187D01*
X184202757Y-110476800D01*
X184606077Y-110880824D01*
X185013850Y-111050146D01*
X184608200Y-111217757D01*
X184204176Y-111621077D01*
X183985250Y-112148309D01*
X183984752Y-112719187D01*
X184202757Y-113246800D01*
X184606077Y-113650824D01*
X185013850Y-113820146D01*
X184608200Y-113987757D01*
X184204176Y-114391077D01*
X183985250Y-114918309D01*
X183984752Y-115489187D01*
X184202757Y-116016800D01*
X184606077Y-116420824D01*
X185013850Y-116590146D01*
X184608200Y-116757757D01*
X184204176Y-117161077D01*
X183985250Y-117688309D01*
X183984752Y-118259187D01*
X184127224Y-118603995D01*
X183887745Y-118531861D01*
X183059605Y-119360000D01*
X183887745Y-120188139D01*
X184133864Y-120114005D01*
X184326965Y-119576777D01*
X184299778Y-119006546D01*
X184213011Y-118797072D01*
X184606077Y-119190824D01*
X185133309Y-119409750D01*
X185704187Y-119410248D01*
X186231800Y-119192243D01*
X186635824Y-118788923D01*
X186854750Y-118261691D01*
X186855248Y-117690813D01*
X186637243Y-117163200D01*
X186233923Y-116759176D01*
X185826150Y-116589854D01*
X186231800Y-116422243D01*
X186635824Y-116018923D01*
X186854750Y-115491691D01*
X186855248Y-114920813D01*
X186637243Y-114393200D01*
X186233923Y-113989176D01*
X185826150Y-113819854D01*
X186231800Y-113652243D01*
X186635824Y-113248923D01*
X186854750Y-112721691D01*
X186855248Y-112150813D01*
X186637243Y-111623200D01*
X186233923Y-111219176D01*
X185826150Y-111049854D01*
X186231800Y-110882243D01*
X186635824Y-110478923D01*
X186854750Y-109951691D01*
X186855248Y-109380813D01*
X186637243Y-108853200D01*
X186233923Y-108449176D01*
X185826150Y-108279854D01*
X186231800Y-108112243D01*
X186635824Y-107708923D01*
X186854750Y-107181691D01*
X186855248Y-106610813D01*
X186637243Y-106083200D01*
X186233923Y-105679176D01*
X185826150Y-105509854D01*
X186231800Y-105342243D01*
X186635824Y-104938923D01*
X186854750Y-104411691D01*
X186855248Y-103840813D01*
X186637243Y-103313200D01*
X186233923Y-102909176D01*
X185826150Y-102739854D01*
X186231800Y-102572243D01*
X186635824Y-102168923D01*
X186854750Y-101641691D01*
X186855248Y-101070813D01*
X186637243Y-100543200D01*
X186233923Y-100139176D01*
X185826150Y-99969854D01*
X186231800Y-99802243D01*
X186635824Y-99398923D01*
X186854750Y-98871691D01*
X186855248Y-98300813D01*
X186637243Y-97773200D01*
X186233923Y-97369176D01*
X185826150Y-97199854D01*
X186231800Y-97032243D01*
X186635824Y-96628923D01*
X186854750Y-96101691D01*
X186855248Y-95530813D01*
X186637243Y-95003200D01*
X186233923Y-94599176D01*
X185826150Y-94429854D01*
X186231800Y-94262243D01*
X186635824Y-93858923D01*
X186854750Y-93331691D01*
X186855248Y-92760813D01*
X186637243Y-92233200D01*
X186233923Y-91829176D01*
X185826150Y-91659854D01*
X186231800Y-91492243D01*
X186635824Y-91088923D01*
X186854750Y-90561691D01*
X186855248Y-89990813D01*
X186637243Y-89463200D01*
X186233923Y-89059176D01*
X185826150Y-88889854D01*
X186231800Y-88722243D01*
X186635824Y-88318923D01*
X186854750Y-87791691D01*
X186855248Y-87220813D01*
X186637243Y-86693200D01*
X186233923Y-86289176D01*
X185706691Y-86070250D01*
X185135813Y-86069752D01*
X184608200Y-86287757D01*
X184327440Y-86568028D01*
X184327440Y-85320000D01*
X184283162Y-85084683D01*
X184144090Y-84868559D01*
X183931890Y-84723569D01*
X183680000Y-84672560D01*
X182080000Y-84672560D01*
X181844683Y-84716838D01*
X181628559Y-84855910D01*
X181483569Y-85068110D01*
X181432560Y-85320000D01*
X181432560Y-86920000D01*
X181476838Y-87155317D01*
X181615910Y-87371441D01*
X181828110Y-87516431D01*
X182080000Y-87567440D01*
X182323087Y-87567440D01*
X182068200Y-87672757D01*
X181664176Y-88076077D01*
X181445250Y-88603309D01*
X181444752Y-89174187D01*
X181662757Y-89701800D01*
X182066077Y-90105824D01*
X182473850Y-90275146D01*
X182068200Y-90442757D01*
X181664176Y-90846077D01*
X181445250Y-91373309D01*
X181444752Y-91944187D01*
X181570415Y-92248316D01*
X181330327Y-92007808D01*
X180986799Y-91865162D01*
X180939923Y-91865121D01*
X178337401Y-89262599D01*
X178090839Y-89097852D01*
X177800000Y-89040000D01*
X171800000Y-89040000D01*
X171509160Y-89097852D01*
X171262599Y-89262599D01*
X162735009Y-97790189D01*
X162735162Y-97614833D01*
X162593117Y-97271057D01*
X162330327Y-97007808D01*
X161986799Y-96865162D01*
X161939923Y-96865121D01*
X159735122Y-94660320D01*
X159735162Y-94614833D01*
X159593117Y-94271057D01*
X159330327Y-94007808D01*
X158986799Y-93865162D01*
X158614833Y-93864838D01*
X158271057Y-94006883D01*
X158007808Y-94269673D01*
X157865162Y-94613201D01*
X157864838Y-94985167D01*
X158006883Y-95328943D01*
X158269673Y-95592192D01*
X158613201Y-95734838D01*
X158660077Y-95734879D01*
X160864878Y-97939680D01*
X160864838Y-97985167D01*
X161006883Y-98328943D01*
X161269673Y-98592192D01*
X161613201Y-98734838D01*
X161790206Y-98734992D01*
X160660320Y-99864878D01*
X160614833Y-99864838D01*
X160271057Y-100006883D01*
X160007808Y-100269673D01*
X159865162Y-100613201D01*
X159864838Y-100985167D01*
X160006883Y-101328943D01*
X160269673Y-101592192D01*
X160613201Y-101734838D01*
X160985167Y-101735162D01*
X161300351Y-101604931D01*
X161613201Y-101734838D01*
X161985167Y-101735162D01*
X162328943Y-101593117D01*
X162592192Y-101330327D01*
X162734838Y-100986799D01*
X162734879Y-100939923D01*
X166939680Y-96735122D01*
X166985167Y-96735162D01*
X167328943Y-96593117D01*
X167592192Y-96330327D01*
X167734838Y-95986799D01*
X167735162Y-95614833D01*
X167593117Y-95271057D01*
X167498514Y-95176288D01*
X172114802Y-90560000D01*
X177485198Y-90560000D01*
X179864878Y-92939680D01*
X179864838Y-92985167D01*
X180006883Y-93328943D01*
X180269673Y-93592192D01*
X180613201Y-93734838D01*
X180985167Y-93735162D01*
X181328943Y-93593117D01*
X181592192Y-93330327D01*
X181734838Y-92986799D01*
X181735162Y-92614833D01*
X181685459Y-92494541D01*
X182066077Y-92875824D01*
X182473850Y-93045146D01*
X182068200Y-93212757D01*
X181664176Y-93616077D01*
X181445250Y-94143309D01*
X181444752Y-94714187D01*
X181662757Y-95241800D01*
X182066077Y-95645824D01*
X182473850Y-95815146D01*
X182068200Y-95982757D01*
X181664176Y-96386077D01*
X181445250Y-96913309D01*
X181445067Y-97122749D01*
X181330327Y-97007808D01*
X180986799Y-96865162D01*
X180614833Y-96864838D01*
X180271057Y-97006883D01*
X180007808Y-97269673D01*
X179865162Y-97613201D01*
X179865121Y-97660077D01*
X177560000Y-99965198D01*
X177560000Y-96114802D01*
X178939680Y-94735122D01*
X178985167Y-94735162D01*
X179328943Y-94593117D01*
X179592192Y-94330327D01*
X179734838Y-93986799D01*
X179735162Y-93614833D01*
X179593117Y-93271057D01*
X179330327Y-93007808D01*
X178986799Y-92865162D01*
X178614833Y-92864838D01*
X178271057Y-93006883D01*
X178007808Y-93269673D01*
X177865162Y-93613201D01*
X177865121Y-93660077D01*
X176560000Y-94965198D01*
X176560000Y-92362463D01*
X176592192Y-92330327D01*
X176734838Y-91986799D01*
X176735162Y-91614833D01*
X176593117Y-91271057D01*
X176330327Y-91007808D01*
X175986799Y-90865162D01*
X175614833Y-90864838D01*
X175299649Y-90995069D01*
X174986799Y-90865162D01*
X174614833Y-90864838D01*
X174271057Y-91006883D01*
X174007808Y-91269673D01*
X173865162Y-91613201D01*
X173864838Y-91985167D01*
X174006883Y-92328943D01*
X174040000Y-92362118D01*
X174040000Y-93887253D01*
X173986799Y-93865162D01*
X173614833Y-93864838D01*
X173271057Y-94006883D01*
X173007808Y-94269673D01*
X172865162Y-94613201D01*
X172864838Y-94985167D01*
X173006883Y-95328943D01*
X173040000Y-95362118D01*
X173040000Y-96887253D01*
X172986799Y-96865162D01*
X172614833Y-96864838D01*
X172271057Y-97006883D01*
X172007808Y-97269673D01*
X171865162Y-97613201D01*
X171864838Y-97985167D01*
X172006883Y-98328943D01*
X172040000Y-98362118D01*
X172040000Y-98887253D01*
X171986799Y-98865162D01*
X171614833Y-98864838D01*
X171271057Y-99006883D01*
X171007808Y-99269673D01*
X170865162Y-99613201D01*
X170864838Y-99985167D01*
X171006883Y-100328943D01*
X171040000Y-100362118D01*
X171040000Y-107887253D01*
X170986799Y-107865162D01*
X170734944Y-107864943D01*
X170735162Y-107614833D01*
X170593117Y-107271057D01*
X170330327Y-107007808D01*
X169986799Y-106865162D01*
X169614833Y-106864838D01*
X169271057Y-107006883D01*
X169007808Y-107269673D01*
X168865162Y-107613201D01*
X168864838Y-107985167D01*
X169006883Y-108328943D01*
X169040000Y-108362118D01*
X169040000Y-109485198D01*
X160485198Y-118040000D01*
X148362463Y-118040000D01*
X148330327Y-118007808D01*
X147986799Y-117865162D01*
X147614833Y-117864838D01*
X147271057Y-118006883D01*
X147007808Y-118269673D01*
X146865162Y-118613201D01*
X146864838Y-118985167D01*
X146887494Y-119040000D01*
X145362463Y-119040000D01*
X145330327Y-119007808D01*
X144986799Y-118865162D01*
X144614833Y-118864838D01*
X144271057Y-119006883D01*
X144007808Y-119269673D01*
X143865162Y-119613201D01*
X143864838Y-119985167D01*
X143887494Y-120040000D01*
X142362463Y-120040000D01*
X142330327Y-120007808D01*
X141986799Y-119865162D01*
X141614833Y-119864838D01*
X141271057Y-120006883D01*
X141007808Y-120269673D01*
X140865162Y-120613201D01*
X140864838Y-120985167D01*
X140887494Y-121040000D01*
X139362463Y-121040000D01*
X139330327Y-121007808D01*
X138986799Y-120865162D01*
X138614833Y-120864838D01*
X138271057Y-121006883D01*
X138007808Y-121269673D01*
X137865162Y-121613201D01*
X137864838Y-121985167D01*
X137887494Y-122040000D01*
X136362463Y-122040000D01*
X136330327Y-122007808D01*
X135986799Y-121865162D01*
X135614833Y-121864838D01*
X135271057Y-122006883D01*
X135007808Y-122269673D01*
X134865162Y-122613201D01*
X134864838Y-122985167D01*
X134887494Y-123040000D01*
X134362463Y-123040000D01*
X134330327Y-123007808D01*
X133986799Y-122865162D01*
X133614833Y-122864838D01*
X133271057Y-123006883D01*
X133007808Y-123269673D01*
X132865162Y-123613201D01*
X132864838Y-123985167D01*
X132887494Y-124040000D01*
X130362463Y-124040000D01*
X130330327Y-124007808D01*
X129986799Y-123865162D01*
X129614833Y-123864838D01*
X129271057Y-124006883D01*
X129007808Y-124269673D01*
X128865162Y-124613201D01*
X128864838Y-124985167D01*
X128887494Y-125040000D01*
X126362463Y-125040000D01*
X126330327Y-125007808D01*
X125986799Y-124865162D01*
X125614833Y-124864838D01*
X125271057Y-125006883D01*
X125007808Y-125269673D01*
X124865162Y-125613201D01*
X124864838Y-125985167D01*
X124887494Y-126040000D01*
X122800000Y-126040000D01*
X122509161Y-126097852D01*
X122262599Y-126262599D01*
X120660320Y-127864878D01*
X120614833Y-127864838D01*
X120271057Y-128006883D01*
X120007808Y-128269673D01*
X119865162Y-128613201D01*
X119864838Y-128985167D01*
X95927000Y-128985167D01*
X95927000Y-115985167D01*
X140864838Y-115985167D01*
X141006883Y-116328943D01*
X141269673Y-116592192D01*
X141613201Y-116734838D01*
X141660077Y-116734879D01*
X142864878Y-117939680D01*
X142864838Y-117985167D01*
X143006883Y-118328943D01*
X143269673Y-118592192D01*
X143613201Y-118734838D01*
X143985167Y-118735162D01*
X144328943Y-118593117D01*
X144592192Y-118330327D01*
X144734838Y-117986799D01*
X144735162Y-117614833D01*
X144593117Y-117271057D01*
X144330327Y-117007808D01*
X143986799Y-116865162D01*
X143939923Y-116865121D01*
X142735122Y-115660320D01*
X142735162Y-115614833D01*
X142593117Y-115271057D01*
X142330327Y-115007808D01*
X141986799Y-114865162D01*
X141614833Y-114864838D01*
X141271057Y-115006883D01*
X141007808Y-115269673D01*
X140865162Y-115613201D01*
X140864838Y-115985167D01*
X95927000Y-115985167D01*
X95927000Y-113927000D01*
X110800000Y-113927000D01*
X110846159Y-113918315D01*
X110888553Y-113891035D01*
X110916994Y-113849410D01*
X110927000Y-113800000D01*
X110927000Y-111985167D01*
X148864838Y-111985167D01*
X149006883Y-112328943D01*
X149269673Y-112592192D01*
X149613201Y-112734838D01*
X149865056Y-112735057D01*
X149864838Y-112985167D01*
X150006883Y-113328943D01*
X150269673Y-113592192D01*
X150613201Y-113734838D01*
X150985167Y-113735162D01*
X151328943Y-113593117D01*
X151362118Y-113560000D01*
X154237537Y-113560000D01*
X154269673Y-113592192D01*
X154613201Y-113734838D01*
X154985167Y-113735162D01*
X155328943Y-113593117D01*
X155592192Y-113330327D01*
X155734838Y-112986799D01*
X155735162Y-112614833D01*
X155593117Y-112271057D01*
X155330327Y-112007808D01*
X154986799Y-111865162D01*
X154734944Y-111864943D01*
X154735162Y-111614833D01*
X154593117Y-111271057D01*
X154330327Y-111007808D01*
X153986799Y-110865162D01*
X153614833Y-110864838D01*
X153271057Y-111006883D01*
X153237882Y-111040000D01*
X150362463Y-111040000D01*
X150330327Y-111007808D01*
X149986799Y-110865162D01*
X149614833Y-110864838D01*
X149271057Y-111006883D01*
X149007808Y-111269673D01*
X148865162Y-111613201D01*
X148864838Y-111985167D01*
X110927000Y-111985167D01*
X110927000Y-108620907D01*
X116625000Y-108620907D01*
X116625000Y-108679093D01*
X116738039Y-109247378D01*
X117059946Y-109729147D01*
X117541715Y-110051054D01*
X118110000Y-110164093D01*
X118678285Y-110051054D01*
X119160054Y-109729147D01*
X119380000Y-109399974D01*
X119599946Y-109729147D01*
X120081715Y-110051054D01*
X120650000Y-110164093D01*
X121218285Y-110051054D01*
X121700054Y-109729147D01*
X121920000Y-109399974D01*
X122139946Y-109729147D01*
X122621715Y-110051054D01*
X123190000Y-110164093D01*
X123758285Y-110051054D01*
X124240054Y-109729147D01*
X124460000Y-109399974D01*
X124679946Y-109729147D01*
X125161715Y-110051054D01*
X125730000Y-110164093D01*
X126298285Y-110051054D01*
X126780054Y-109729147D01*
X127000000Y-109399974D01*
X127219946Y-109729147D01*
X127701715Y-110051054D01*
X128270000Y-110164093D01*
X128838285Y-110051054D01*
X129320054Y-109729147D01*
X129540000Y-109399974D01*
X129759946Y-109729147D01*
X130241715Y-110051054D01*
X130810000Y-110164093D01*
X131378285Y-110051054D01*
X131860054Y-109729147D01*
X132087702Y-109388447D01*
X132154817Y-109531358D01*
X132583076Y-109921645D01*
X132993110Y-110091476D01*
X133223000Y-109970155D01*
X133223000Y-108777000D01*
X133203000Y-108777000D01*
X133203000Y-108523000D01*
X133223000Y-108523000D01*
X133223000Y-107329845D01*
X133477000Y-107329845D01*
X133477000Y-108523000D01*
X133497000Y-108523000D01*
X133497000Y-108777000D01*
X133477000Y-108777000D01*
X133477000Y-109970155D01*
X133706890Y-110091476D01*
X134116924Y-109921645D01*
X134545183Y-109531358D01*
X134612298Y-109388447D01*
X134839946Y-109729147D01*
X135321715Y-110051054D01*
X135890000Y-110164093D01*
X136458285Y-110051054D01*
X136940054Y-109729147D01*
X137160000Y-109399974D01*
X137379946Y-109729147D01*
X137861715Y-110051054D01*
X138430000Y-110164093D01*
X138998285Y-110051054D01*
X139480054Y-109729147D01*
X139700000Y-109399974D01*
X139919946Y-109729147D01*
X140401715Y-110051054D01*
X140970000Y-110164093D01*
X141538285Y-110051054D01*
X142020054Y-109729147D01*
X142240000Y-109399974D01*
X142459946Y-109729147D01*
X142941715Y-110051054D01*
X143510000Y-110164093D01*
X144078285Y-110051054D01*
X144560054Y-109729147D01*
X144780000Y-109399974D01*
X144999946Y-109729147D01*
X145481715Y-110051054D01*
X146050000Y-110164093D01*
X146618285Y-110051054D01*
X147100054Y-109729147D01*
X147320000Y-109399974D01*
X147539946Y-109729147D01*
X148021715Y-110051054D01*
X148590000Y-110164093D01*
X149158285Y-110051054D01*
X149640054Y-109729147D01*
X149860000Y-109399974D01*
X150079946Y-109729147D01*
X150561715Y-110051054D01*
X151130000Y-110164093D01*
X151698285Y-110051054D01*
X152180054Y-109729147D01*
X152400000Y-109399974D01*
X152619946Y-109729147D01*
X153101715Y-110051054D01*
X153670000Y-110164093D01*
X154238285Y-110051054D01*
X154720054Y-109729147D01*
X154940000Y-109399974D01*
X155159946Y-109729147D01*
X155641715Y-110051054D01*
X156210000Y-110164093D01*
X156778285Y-110051054D01*
X157260054Y-109729147D01*
X157480000Y-109399974D01*
X157699946Y-109729147D01*
X158181715Y-110051054D01*
X158750000Y-110164093D01*
X159318285Y-110051054D01*
X159800054Y-109729147D01*
X160020000Y-109399974D01*
X160239946Y-109729147D01*
X160721715Y-110051054D01*
X161290000Y-110164093D01*
X161858285Y-110051054D01*
X162340054Y-109729147D01*
X162560000Y-109399974D01*
X162779946Y-109729147D01*
X163261715Y-110051054D01*
X163830000Y-110164093D01*
X164398285Y-110051054D01*
X164880054Y-109729147D01*
X164907850Y-109687548D01*
X164916838Y-109735317D01*
X165055910Y-109951441D01*
X165268110Y-110096431D01*
X165520000Y-110147440D01*
X167220000Y-110147440D01*
X167455317Y-110103162D01*
X167671441Y-109964090D01*
X167816431Y-109751890D01*
X167867440Y-109500000D01*
X167867440Y-107800000D01*
X167823162Y-107564683D01*
X167684090Y-107348559D01*
X167471890Y-107203569D01*
X167220000Y-107152560D01*
X165520000Y-107152560D01*
X165284683Y-107196838D01*
X165068559Y-107335910D01*
X164923569Y-107548110D01*
X164909914Y-107615541D01*
X164880054Y-107570853D01*
X164398285Y-107248946D01*
X163830000Y-107135907D01*
X163261715Y-107248946D01*
X162779946Y-107570853D01*
X162560000Y-107900026D01*
X162340054Y-107570853D01*
X161858285Y-107248946D01*
X161290000Y-107135907D01*
X160721715Y-107248946D01*
X160239946Y-107570853D01*
X160020000Y-107900026D01*
X159800054Y-107570853D01*
X159318285Y-107248946D01*
X158750000Y-107135907D01*
X158181715Y-107248946D01*
X157699946Y-107570853D01*
X157480000Y-107900026D01*
X157260054Y-107570853D01*
X156778285Y-107248946D01*
X156210000Y-107135907D01*
X155641715Y-107248946D01*
X155159946Y-107570853D01*
X154940000Y-107900026D01*
X154720054Y-107570853D01*
X154238285Y-107248946D01*
X153670000Y-107135907D01*
X153101715Y-107248946D01*
X152619946Y-107570853D01*
X152400000Y-107900026D01*
X152180054Y-107570853D01*
X151698285Y-107248946D01*
X151130000Y-107135907D01*
X150561715Y-107248946D01*
X150079946Y-107570853D01*
X149860000Y-107900026D01*
X149640054Y-107570853D01*
X149158285Y-107248946D01*
X148590000Y-107135907D01*
X148021715Y-107248946D01*
X147539946Y-107570853D01*
X147320000Y-107900026D01*
X147100054Y-107570853D01*
X146618285Y-107248946D01*
X146050000Y-107135907D01*
X145481715Y-107248946D01*
X144999946Y-107570853D01*
X144780000Y-107900026D01*
X144560054Y-107570853D01*
X144078285Y-107248946D01*
X143510000Y-107135907D01*
X142941715Y-107248946D01*
X142459946Y-107570853D01*
X142240000Y-107900026D01*
X142020054Y-107570853D01*
X141538285Y-107248946D01*
X140970000Y-107135907D01*
X140401715Y-107248946D01*
X139919946Y-107570853D01*
X139700000Y-107900026D01*
X139480054Y-107570853D01*
X138998285Y-107248946D01*
X138430000Y-107135907D01*
X137861715Y-107248946D01*
X137379946Y-107570853D01*
X137160000Y-107900026D01*
X136940054Y-107570853D01*
X136458285Y-107248946D01*
X135890000Y-107135907D01*
X135321715Y-107248946D01*
X134839946Y-107570853D01*
X134612298Y-107911553D01*
X134545183Y-107768642D01*
X134116924Y-107378355D01*
X133706890Y-107208524D01*
X133477000Y-107329845D01*
X133223000Y-107329845D01*
X132993110Y-107208524D01*
X132583076Y-107378355D01*
X132154817Y-107768642D01*
X132087702Y-107911553D01*
X131860054Y-107570853D01*
X131378285Y-107248946D01*
X130810000Y-107135907D01*
X130241715Y-107248946D01*
X129759946Y-107570853D01*
X129540000Y-107900026D01*
X129320054Y-107570853D01*
X128838285Y-107248946D01*
X128270000Y-107135907D01*
X127701715Y-107248946D01*
X127219946Y-107570853D01*
X127000000Y-107900026D01*
X126780054Y-107570853D01*
X126298285Y-107248946D01*
X125730000Y-107135907D01*
X125161715Y-107248946D01*
X124679946Y-107570853D01*
X124460000Y-107900026D01*
X124240054Y-107570853D01*
X123758285Y-107248946D01*
X123190000Y-107135907D01*
X122621715Y-107248946D01*
X122139946Y-107570853D01*
X121920000Y-107900026D01*
X121700054Y-107570853D01*
X121218285Y-107248946D01*
X120650000Y-107135907D01*
X120081715Y-107248946D01*
X119599946Y-107570853D01*
X119380000Y-107900026D01*
X119160054Y-107570853D01*
X118678285Y-107248946D01*
X118110000Y-107135907D01*
X117541715Y-107248946D01*
X117059946Y-107570853D01*
X116738039Y-108052622D01*
X116625000Y-108620907D01*
X110927000Y-108620907D01*
X110927000Y-103540907D01*
X116625000Y-103540907D01*
X116625000Y-103599093D01*
X116738039Y-104167378D01*
X117059946Y-104649147D01*
X117541715Y-104971054D01*
X118110000Y-105084093D01*
X118678285Y-104971054D01*
X119160054Y-104649147D01*
X119380000Y-104319974D01*
X119599946Y-104649147D01*
X120081715Y-104971054D01*
X120650000Y-105084093D01*
X121218285Y-104971054D01*
X121700054Y-104649147D01*
X121920000Y-104319974D01*
X122139946Y-104649147D01*
X122621715Y-104971054D01*
X123190000Y-105084093D01*
X123758285Y-104971054D01*
X124240054Y-104649147D01*
X124460000Y-104319974D01*
X124679946Y-104649147D01*
X125161715Y-104971054D01*
X125730000Y-105084093D01*
X126298285Y-104971054D01*
X126780054Y-104649147D01*
X127000000Y-104319974D01*
X127219946Y-104649147D01*
X127701715Y-104971054D01*
X128270000Y-105084093D01*
X128838285Y-104971054D01*
X129320054Y-104649147D01*
X129540000Y-104319974D01*
X129759946Y-104649147D01*
X130241715Y-104971054D01*
X130810000Y-105084093D01*
X131378285Y-104971054D01*
X131860054Y-104649147D01*
X132087702Y-104308447D01*
X132154817Y-104451358D01*
X132583076Y-104841645D01*
X132993110Y-105011476D01*
X133223000Y-104890155D01*
X133223000Y-103697000D01*
X133203000Y-103697000D01*
X133203000Y-103443000D01*
X133223000Y-103443000D01*
X133223000Y-102249845D01*
X133477000Y-102249845D01*
X133477000Y-103443000D01*
X133497000Y-103443000D01*
X133497000Y-103697000D01*
X133477000Y-103697000D01*
X133477000Y-104890155D01*
X133706890Y-105011476D01*
X134116924Y-104841645D01*
X134545183Y-104451358D01*
X134612298Y-104308447D01*
X134839946Y-104649147D01*
X135321715Y-104971054D01*
X135890000Y-105084093D01*
X136458285Y-104971054D01*
X136940054Y-104649147D01*
X137160000Y-104319974D01*
X137379946Y-104649147D01*
X137861715Y-104971054D01*
X138430000Y-105084093D01*
X138998285Y-104971054D01*
X139480054Y-104649147D01*
X139700000Y-104319974D01*
X139919946Y-104649147D01*
X140401715Y-104971054D01*
X140970000Y-105084093D01*
X141538285Y-104971054D01*
X142020054Y-104649147D01*
X142240000Y-104319974D01*
X142459946Y-104649147D01*
X142941715Y-104971054D01*
X143510000Y-105084093D01*
X144078285Y-104971054D01*
X144560054Y-104649147D01*
X144780000Y-104319974D01*
X144999946Y-104649147D01*
X145481715Y-104971054D01*
X146050000Y-105084093D01*
X146618285Y-104971054D01*
X147100054Y-104649147D01*
X147320000Y-104319974D01*
X147539946Y-104649147D01*
X148021715Y-104971054D01*
X148590000Y-105084093D01*
X149158285Y-104971054D01*
X149640054Y-104649147D01*
X149860000Y-104319974D01*
X150079946Y-104649147D01*
X150561715Y-104971054D01*
X151130000Y-105084093D01*
X151698285Y-104971054D01*
X152180054Y-104649147D01*
X152400000Y-104319974D01*
X152619946Y-104649147D01*
X153101715Y-104971054D01*
X153670000Y-105084093D01*
X154238285Y-104971054D01*
X154720054Y-104649147D01*
X154940000Y-104319974D01*
X155159946Y-104649147D01*
X155641715Y-104971054D01*
X155988330Y-105040000D01*
X155362463Y-105040000D01*
X155330327Y-105007808D01*
X154986799Y-104865162D01*
X154614833Y-104864838D01*
X154271057Y-105006883D01*
X154007808Y-105269673D01*
X153865162Y-105613201D01*
X153864838Y-105985167D01*
X154006883Y-106328943D01*
X154269673Y-106592192D01*
X154613201Y-106734838D01*
X154985167Y-106735162D01*
X155328943Y-106593117D01*
X155362118Y-106560000D01*
X167237537Y-106560000D01*
X167269673Y-106592192D01*
X167613201Y-106734838D01*
X167985167Y-106735162D01*
X168328943Y-106593117D01*
X168592192Y-106330327D01*
X168734838Y-105986799D01*
X168735162Y-105614833D01*
X168593117Y-105271057D01*
X168330327Y-105007808D01*
X167986799Y-104865162D01*
X167684554Y-104864899D01*
X167816431Y-104671890D01*
X167867440Y-104420000D01*
X167867440Y-102720000D01*
X167823162Y-102484683D01*
X167684090Y-102268559D01*
X167471890Y-102123569D01*
X167220000Y-102072560D01*
X165520000Y-102072560D01*
X165284683Y-102116838D01*
X165068559Y-102255910D01*
X164923569Y-102468110D01*
X164909914Y-102535541D01*
X164880054Y-102490853D01*
X164398285Y-102168946D01*
X163830000Y-102055907D01*
X163261715Y-102168946D01*
X162779946Y-102490853D01*
X162560000Y-102820026D01*
X162340054Y-102490853D01*
X161858285Y-102168946D01*
X161290000Y-102055907D01*
X160721715Y-102168946D01*
X160239946Y-102490853D01*
X160020000Y-102820026D01*
X159800054Y-102490853D01*
X159318285Y-102168946D01*
X158750000Y-102055907D01*
X158181715Y-102168946D01*
X157699946Y-102490853D01*
X157480000Y-102820026D01*
X157260054Y-102490853D01*
X156778285Y-102168946D01*
X156210000Y-102055907D01*
X155641715Y-102168946D01*
X155159946Y-102490853D01*
X154940000Y-102820026D01*
X154720054Y-102490853D01*
X154238285Y-102168946D01*
X153670000Y-102055907D01*
X153101715Y-102168946D01*
X152619946Y-102490853D01*
X152400000Y-102820026D01*
X152180054Y-102490853D01*
X151698285Y-102168946D01*
X151130000Y-102055907D01*
X150561715Y-102168946D01*
X150079946Y-102490853D01*
X149860000Y-102820026D01*
X149640054Y-102490853D01*
X149158285Y-102168946D01*
X148590000Y-102055907D01*
X148021715Y-102168946D01*
X147539946Y-102490853D01*
X147320000Y-102820026D01*
X147100054Y-102490853D01*
X146618285Y-102168946D01*
X146050000Y-102055907D01*
X145481715Y-102168946D01*
X144999946Y-102490853D01*
X144780000Y-102820026D01*
X144560054Y-102490853D01*
X144078285Y-102168946D01*
X143510000Y-102055907D01*
X142941715Y-102168946D01*
X142459946Y-102490853D01*
X142240000Y-102820026D01*
X142020054Y-102490853D01*
X141538285Y-102168946D01*
X140970000Y-102055907D01*
X140401715Y-102168946D01*
X139919946Y-102490853D01*
X139700000Y-102820026D01*
X139480054Y-102490853D01*
X138998285Y-102168946D01*
X138430000Y-102055907D01*
X137861715Y-102168946D01*
X137379946Y-102490853D01*
X137160000Y-102820026D01*
X136940054Y-102490853D01*
X136458285Y-102168946D01*
X135890000Y-102055907D01*
X135321715Y-102168946D01*
X134839946Y-102490853D01*
X134612298Y-102831553D01*
X134545183Y-102688642D01*
X134116924Y-102298355D01*
X133706890Y-102128524D01*
X133477000Y-102249845D01*
X133223000Y-102249845D01*
X132993110Y-102128524D01*
X132583076Y-102298355D01*
X132154817Y-102688642D01*
X132087702Y-102831553D01*
X131860054Y-102490853D01*
X131378285Y-102168946D01*
X130810000Y-102055907D01*
X130241715Y-102168946D01*
X129759946Y-102490853D01*
X129540000Y-102820026D01*
X129320054Y-102490853D01*
X128838285Y-102168946D01*
X128270000Y-102055907D01*
X127701715Y-102168946D01*
X127219946Y-102490853D01*
X127000000Y-102820026D01*
X126780054Y-102490853D01*
X126298285Y-102168946D01*
X125730000Y-102055907D01*
X125161715Y-102168946D01*
X124679946Y-102490853D01*
X124460000Y-102820026D01*
X124240054Y-102490853D01*
X123758285Y-102168946D01*
X123190000Y-102055907D01*
X122621715Y-102168946D01*
X122139946Y-102490853D01*
X121920000Y-102820026D01*
X121700054Y-102490853D01*
X121218285Y-102168946D01*
X120650000Y-102055907D01*
X120081715Y-102168946D01*
X119599946Y-102490853D01*
X119380000Y-102820026D01*
X119160054Y-102490853D01*
X118678285Y-102168946D01*
X118110000Y-102055907D01*
X117541715Y-102168946D01*
X117059946Y-102490853D01*
X116738039Y-102972622D01*
X116625000Y-103540907D01*
X110927000Y-103540907D01*
X110927000Y-100852606D01*
X119695419Y-92084187D01*
X156364752Y-92084187D01*
X156582757Y-92611800D01*
X156986077Y-93015824D01*
X157513309Y-93234750D01*
X158084187Y-93235248D01*
X158611800Y-93017243D01*
X159015824Y-92613923D01*
X159234750Y-92086691D01*
X159235248Y-91515813D01*
X159017243Y-90988200D01*
X158613923Y-90584176D01*
X158086691Y-90365250D01*
X157515813Y-90364752D01*
X156988200Y-90582757D01*
X156584176Y-90986077D01*
X156365250Y-91513309D01*
X156364752Y-92084187D01*
X119695419Y-92084187D01*
X124889803Y-86889803D01*
X124916994Y-86849410D01*
X124927000Y-86800000D01*
X124927000Y-50800000D01*
X136673000Y-50800000D01*
X136673000Y-88800000D01*
X136681685Y-88846159D01*
X136708965Y-88888553D01*
X136750590Y-88916994D01*
X136800000Y-88927000D01*
X148800000Y-88927000D01*
X148846159Y-88918315D01*
X148888553Y-88891035D01*
X148916994Y-88849410D01*
X148927000Y-88800000D01*
X148927000Y-86000000D01*
X156352560Y-86000000D01*
X156352560Y-87600000D01*
X156396838Y-87835317D01*
X156535910Y-88051441D01*
X156748110Y-88196431D01*
X157000000Y-88247440D01*
X158600000Y-88247440D01*
X158835317Y-88203162D01*
X159051441Y-88064090D01*
X159196431Y-87851890D01*
X159247440Y-87600000D01*
X159247440Y-86404187D01*
X169564752Y-86404187D01*
X169782757Y-86931800D01*
X170186077Y-87335824D01*
X170713309Y-87554750D01*
X171284187Y-87555248D01*
X171811800Y-87337243D01*
X172215824Y-86933923D01*
X172249813Y-86852069D01*
X172282757Y-86931800D01*
X172686077Y-87335824D01*
X173213309Y-87554750D01*
X173784187Y-87555248D01*
X174311800Y-87337243D01*
X174715824Y-86933923D01*
X174934750Y-86406691D01*
X174935248Y-85835813D01*
X174717243Y-85308200D01*
X174313923Y-84904176D01*
X173786691Y-84685250D01*
X173215813Y-84684752D01*
X172688200Y-84902757D01*
X172284176Y-85306077D01*
X172250187Y-85387931D01*
X172217243Y-85308200D01*
X171813923Y-84904176D01*
X171286691Y-84685250D01*
X170715813Y-84684752D01*
X170188200Y-84902757D01*
X169784176Y-85306077D01*
X169565250Y-85833309D01*
X169564752Y-86404187D01*
X159247440Y-86404187D01*
X159247440Y-86000000D01*
X159203162Y-85764683D01*
X159064090Y-85548559D01*
X158851890Y-85403569D01*
X158600000Y-85352560D01*
X157000000Y-85352560D01*
X156764683Y-85396838D01*
X156548559Y-85535910D01*
X156403569Y-85748110D01*
X156352560Y-86000000D01*
X148927000Y-86000000D01*
X148927000Y-80800000D01*
X168154928Y-80800000D01*
X168271773Y-81387419D01*
X168604519Y-81885409D01*
X169102509Y-82218155D01*
X169689928Y-82335000D01*
X169750072Y-82335000D01*
X170337491Y-82218155D01*
X170835481Y-81885409D01*
X170990000Y-81654155D01*
X171144519Y-81885409D01*
X171642509Y-82218155D01*
X172229928Y-82335000D01*
X172290072Y-82335000D01*
X172877491Y-82218155D01*
X173298026Y-81937163D01*
X173435910Y-82151441D01*
X173648110Y-82296431D01*
X173900000Y-82347440D01*
X175700000Y-82347440D01*
X175935317Y-82303162D01*
X176151441Y-82164090D01*
X176296431Y-81951890D01*
X176347440Y-81700000D01*
X176347440Y-79900000D01*
X176303162Y-79664683D01*
X176288460Y-79641834D01*
X181514543Y-79641834D01*
X181914853Y-80610658D01*
X182655443Y-81352542D01*
X183623567Y-81754542D01*
X184671834Y-81755457D01*
X185640658Y-81355147D01*
X186382542Y-80614557D01*
X186784542Y-79646433D01*
X186785457Y-78598166D01*
X186385147Y-77629342D01*
X185644557Y-76887458D01*
X184676433Y-76485458D01*
X183628166Y-76484543D01*
X182659342Y-76884853D01*
X181917458Y-77625443D01*
X181515458Y-78593567D01*
X181514543Y-79641834D01*
X176288460Y-79641834D01*
X176164090Y-79448559D01*
X175951890Y-79303569D01*
X175700000Y-79252560D01*
X173900000Y-79252560D01*
X173664683Y-79296838D01*
X173448559Y-79435910D01*
X173303569Y-79648110D01*
X173300281Y-79664344D01*
X172877491Y-79381845D01*
X172290072Y-79265000D01*
X172229928Y-79265000D01*
X171642509Y-79381845D01*
X171144519Y-79714591D01*
X170990000Y-79945845D01*
X170835481Y-79714591D01*
X170337491Y-79381845D01*
X169750072Y-79265000D01*
X169689928Y-79265000D01*
X169102509Y-79381845D01*
X168604519Y-79714591D01*
X168271773Y-80212581D01*
X168154928Y-80800000D01*
X148927000Y-80800000D01*
X148927000Y-78880000D01*
X152132968Y-78880000D01*
X152257425Y-79505687D01*
X152611848Y-80036120D01*
X153142281Y-80390543D01*
X153767968Y-80515000D01*
X153832032Y-80515000D01*
X154457719Y-80390543D01*
X154988152Y-80036120D01*
X155342575Y-79505687D01*
X155467032Y-78880000D01*
X157212968Y-78880000D01*
X157337425Y-79505687D01*
X157691848Y-80036120D01*
X158222281Y-80390543D01*
X158847968Y-80515000D01*
X158912032Y-80515000D01*
X159537719Y-80390543D01*
X160068152Y-80036120D01*
X160422575Y-79505687D01*
X160547032Y-78880000D01*
X160422575Y-78254313D01*
X160242738Y-77985167D01*
X167864838Y-77985167D01*
X168006883Y-78328943D01*
X168269673Y-78592192D01*
X168613201Y-78734838D01*
X168985167Y-78735162D01*
X169328943Y-78593117D01*
X169362118Y-78560000D01*
X172237537Y-78560000D01*
X172269673Y-78592192D01*
X172613201Y-78734838D01*
X172985167Y-78735162D01*
X173328943Y-78593117D01*
X173592192Y-78330327D01*
X173734838Y-77986799D01*
X173735162Y-77614833D01*
X173593117Y-77271057D01*
X173330327Y-77007808D01*
X172986799Y-76865162D01*
X172614833Y-76864838D01*
X172271057Y-77006883D01*
X172237882Y-77040000D01*
X169362463Y-77040000D01*
X169330327Y-77007808D01*
X168986799Y-76865162D01*
X168614833Y-76864838D01*
X168271057Y-77006883D01*
X168007808Y-77269673D01*
X167865162Y-77613201D01*
X167864838Y-77985167D01*
X160242738Y-77985167D01*
X160068152Y-77723880D01*
X159537719Y-77369457D01*
X158912032Y-77245000D01*
X158847968Y-77245000D01*
X158222281Y-77369457D01*
X157691848Y-77723880D01*
X157337425Y-78254313D01*
X157212968Y-78880000D01*
X155467032Y-78880000D01*
X155342575Y-78254313D01*
X154988152Y-77723880D01*
X154457719Y-77369457D01*
X153832032Y-77245000D01*
X153767968Y-77245000D01*
X153142281Y-77369457D01*
X152611848Y-77723880D01*
X152257425Y-78254313D01*
X152132968Y-78880000D01*
X148927000Y-78880000D01*
X148927000Y-72800000D01*
X152152560Y-72800000D01*
X152152560Y-74800000D01*
X152196838Y-75035317D01*
X152335910Y-75251441D01*
X152548110Y-75396431D01*
X152800000Y-75447440D01*
X154800000Y-75447440D01*
X155035317Y-75403162D01*
X155251441Y-75264090D01*
X155396431Y-75051890D01*
X155447440Y-74800000D01*
X155447440Y-73800000D01*
X157212968Y-73800000D01*
X157337425Y-74425687D01*
X157691848Y-74956120D01*
X158222281Y-75310543D01*
X158847968Y-75435000D01*
X158912032Y-75435000D01*
X159537719Y-75310543D01*
X160068152Y-74956120D01*
X160422575Y-74425687D01*
X160467466Y-74200000D01*
X169552560Y-74200000D01*
X169552560Y-75400000D01*
X169596838Y-75635317D01*
X169735910Y-75851441D01*
X169948110Y-75996431D01*
X170200000Y-76047440D01*
X171400000Y-76047440D01*
X171635317Y-76003162D01*
X171851441Y-75864090D01*
X171959431Y-75706042D01*
X172099515Y-75846371D01*
X172553266Y-76034785D01*
X173044579Y-76035214D01*
X173498657Y-75847592D01*
X173846371Y-75500485D01*
X174034785Y-75046734D01*
X174035214Y-74555421D01*
X173847592Y-74101343D01*
X173500485Y-73753629D01*
X173046734Y-73565215D01*
X172555421Y-73564786D01*
X172101343Y-73752408D01*
X171958392Y-73895109D01*
X171864090Y-73748559D01*
X171651890Y-73603569D01*
X171400000Y-73552560D01*
X170200000Y-73552560D01*
X169964683Y-73596838D01*
X169748559Y-73735910D01*
X169603569Y-73948110D01*
X169552560Y-74200000D01*
X160467466Y-74200000D01*
X160547032Y-73800000D01*
X160422575Y-73174313D01*
X160068152Y-72643880D01*
X159537719Y-72289457D01*
X158912032Y-72165000D01*
X158847968Y-72165000D01*
X158222281Y-72289457D01*
X157691848Y-72643880D01*
X157337425Y-73174313D01*
X157212968Y-73800000D01*
X155447440Y-73800000D01*
X155447440Y-72800000D01*
X155403162Y-72564683D01*
X155264090Y-72348559D01*
X155051890Y-72203569D01*
X154800000Y-72152560D01*
X152800000Y-72152560D01*
X152564683Y-72196838D01*
X152348559Y-72335910D01*
X152203569Y-72548110D01*
X152152560Y-72800000D01*
X148927000Y-72800000D01*
X148927000Y-63800000D01*
X158673000Y-63800000D01*
X158673000Y-69800000D01*
X158681685Y-69846159D01*
X158708965Y-69888553D01*
X158750590Y-69916994D01*
X158800000Y-69927000D01*
X178800000Y-69927000D01*
X178846159Y-69918315D01*
X178888553Y-69891035D01*
X178916994Y-69849410D01*
X178927000Y-69800000D01*
X178927000Y-63800000D01*
X178918315Y-63753841D01*
X178891035Y-63711447D01*
X178849410Y-63683006D01*
X178800000Y-63673000D01*
X158800000Y-63673000D01*
X158753841Y-63681685D01*
X158711447Y-63708965D01*
X158683006Y-63750590D01*
X158673000Y-63800000D01*
X148927000Y-63800000D01*
X148927000Y-50800000D01*
X148918315Y-50753841D01*
X148891035Y-50711447D01*
X148849410Y-50683006D01*
X148800000Y-50673000D01*
X136800000Y-50673000D01*
X136753841Y-50681685D01*
X136711447Y-50708965D01*
X136683006Y-50750590D01*
X136673000Y-50800000D01*
X124927000Y-50800000D01*
X124918315Y-50753841D01*
X124891035Y-50711447D01*
X124849410Y-50683006D01*
X124800000Y-50673000D01*
X112800000Y-50673000D01*
X112753841Y-50681685D01*
X112711447Y-50708965D01*
X112683006Y-50750590D01*
X112673000Y-50800000D01*
X112673000Y-79598198D01*
X109560000Y-76485198D01*
X109560000Y-66362463D01*
X109592192Y-66330327D01*
X109734838Y-65986799D01*
X109735162Y-65614833D01*
X109593117Y-65271057D01*
X109330327Y-65007808D01*
X108986799Y-64865162D01*
X108614833Y-64864838D01*
X108271057Y-65006883D01*
X108159660Y-65118086D01*
X107957243Y-64628200D01*
X107553923Y-64224176D01*
X107146150Y-64054854D01*
X107551800Y-63887243D01*
X107955824Y-63483923D01*
X108174750Y-62956691D01*
X108175248Y-62385813D01*
X107957243Y-61858200D01*
X107553923Y-61454176D01*
X107026691Y-61235250D01*
X106455813Y-61234752D01*
X105928200Y-61452757D01*
X105524176Y-61856077D01*
X105305250Y-62383309D01*
X105304752Y-62954187D01*
X105447224Y-63298995D01*
X105207745Y-63226861D01*
X104379605Y-64055000D01*
X105207745Y-64883139D01*
X105447410Y-64810949D01*
X105305250Y-65153309D01*
X105304752Y-65724187D01*
X105522757Y-66251800D01*
X105926077Y-66655824D01*
X106333850Y-66825146D01*
X105928200Y-66992757D01*
X105524176Y-67396077D01*
X105305250Y-67923309D01*
X105304752Y-68494187D01*
X105522757Y-69021800D01*
X105926077Y-69425824D01*
X106333850Y-69595146D01*
X105928200Y-69762757D01*
X105524176Y-70166077D01*
X105305250Y-70693309D01*
X105304752Y-71264187D01*
X105522757Y-71791800D01*
X105926077Y-72195824D01*
X106183126Y-72302560D01*
X105940000Y-72302560D01*
X105704683Y-72346838D01*
X105634977Y-72391693D01*
X105635248Y-72080813D01*
X105417243Y-71553200D01*
X105013923Y-71149176D01*
X104606150Y-70979854D01*
X105011800Y-70812243D01*
X105415824Y-70408923D01*
X105634750Y-69881691D01*
X105635248Y-69310813D01*
X105417243Y-68783200D01*
X105013923Y-68379176D01*
X104606150Y-68209854D01*
X105011800Y-68042243D01*
X105415824Y-67638923D01*
X105634750Y-67111691D01*
X105635248Y-66540813D01*
X105417243Y-66013200D01*
X105013923Y-65609176D01*
X104621940Y-65446410D01*
X104954005Y-65308864D01*
X105028139Y-65062745D01*
X104200000Y-64234605D01*
X103371861Y-65062745D01*
X103445995Y-65308864D01*
X103801938Y-65436804D01*
X103388200Y-65607757D01*
X102984176Y-66011077D01*
X102765250Y-66538309D01*
X102764752Y-67109187D01*
X102982757Y-67636800D01*
X103386077Y-68040824D01*
X103793850Y-68210146D01*
X103388200Y-68377757D01*
X102984176Y-68781077D01*
X102765250Y-69308309D01*
X102764752Y-69879187D01*
X102982757Y-70406800D01*
X103386077Y-70810824D01*
X103793850Y-70980146D01*
X103388200Y-71147757D01*
X102984176Y-71551077D01*
X102765250Y-72078309D01*
X102764752Y-72649187D01*
X102982757Y-73176800D01*
X103386077Y-73580824D01*
X103913309Y-73799750D01*
X104484187Y-73800248D01*
X105011800Y-73582243D01*
X105292560Y-73301972D01*
X105292560Y-74550000D01*
X105336838Y-74785317D01*
X105475910Y-75001441D01*
X105688110Y-75146431D01*
X105940000Y-75197440D01*
X107540000Y-75197440D01*
X107775317Y-75153162D01*
X107991441Y-75014090D01*
X108040000Y-74943022D01*
X108040000Y-76800000D01*
X108097852Y-77090839D01*
X108262599Y-77337401D01*
X112040000Y-81114802D01*
X112040000Y-85673000D01*
X95927000Y-85673000D01*
X95927000Y-81271834D01*
X102834543Y-81271834D01*
X103234853Y-82240658D01*
X103975443Y-82982542D01*
X104943567Y-83384542D01*
X105991834Y-83385457D01*
X106960658Y-82985147D01*
X107702542Y-82244557D01*
X108104542Y-81276433D01*
X108105457Y-80228166D01*
X107705147Y-79259342D01*
X106964557Y-78517458D01*
X105996433Y-78115458D01*
X104948166Y-78114543D01*
X103979342Y-78514853D01*
X103237458Y-79255443D01*
X102835458Y-80223567D01*
X102834543Y-81271834D01*
X95927000Y-81271834D01*
X95927000Y-63838223D01*
X102753035Y-63838223D01*
X102780222Y-64408454D01*
X102946136Y-64809005D01*
X103192255Y-64883139D01*
X104020395Y-64055000D01*
X103192255Y-63226861D01*
X102946136Y-63300995D01*
X102753035Y-63838223D01*
X95927000Y-63838223D01*
X95927000Y-63047255D01*
X103371861Y-63047255D01*
X104200000Y-63875395D01*
X105028139Y-63047255D01*
X104954005Y-62801136D01*
X104416777Y-62608035D01*
X103846546Y-62635222D01*
X103445995Y-62801136D01*
X103371861Y-63047255D01*
X95927000Y-63047255D01*
X95927000Y-56191834D01*
X102834543Y-56191834D01*
X103234853Y-57160658D01*
X103975443Y-57902542D01*
X104943567Y-58304542D01*
X105991834Y-58305457D01*
X106960658Y-57905147D01*
X107702542Y-57164557D01*
X108104542Y-56196433D01*
X108105457Y-55148166D01*
X107705147Y-54179342D01*
X106964557Y-53437458D01*
X105996433Y-53035458D01*
X104948166Y-53034543D01*
X103979342Y-53434853D01*
X103237458Y-54175443D01*
X102835458Y-55143567D01*
X102834543Y-56191834D01*
X95927000Y-56191834D01*
X95927000Y-52927000D01*
X105800000Y-52927000D01*
X105849410Y-52916994D01*
X105891035Y-52888553D01*
X105918315Y-52846159D01*
X105927000Y-52800000D01*
X105927000Y-41927000D01*
X152673000Y-41927000D01*
X152673000Y-51800000D01*
X152673000Y-51800000D01*
G37*
X152673000Y-51800000D02*
X152681685Y-51846159D01*
X152708965Y-51888553D01*
X152750590Y-51916994D01*
X152800000Y-51927000D01*
X193673000Y-51927000D01*
X193673000Y-130673000D01*
X184800000Y-130673000D01*
X184750590Y-130683006D01*
X184708965Y-130711447D01*
X184681685Y-130753841D01*
X184673000Y-130800000D01*
X184673000Y-139673000D01*
X104927000Y-139673000D01*
X104927000Y-135740000D01*
X105635907Y-135740000D01*
X105748946Y-136308285D01*
X106070853Y-136790054D01*
X106552622Y-137111961D01*
X107120907Y-137225000D01*
X107179093Y-137225000D01*
X107747378Y-137111961D01*
X108229147Y-136790054D01*
X108551054Y-136308285D01*
X108664093Y-135740000D01*
X108551054Y-135171715D01*
X108402910Y-134950000D01*
X110302560Y-134950000D01*
X110302560Y-136650000D01*
X110346838Y-136885317D01*
X110485910Y-137101441D01*
X110698110Y-137246431D01*
X110950000Y-137297440D01*
X112650000Y-137297440D01*
X112885317Y-137253162D01*
X113101441Y-137114090D01*
X113246431Y-136901890D01*
X113297440Y-136650000D01*
X113297440Y-136560907D01*
X116625000Y-136560907D01*
X116625000Y-136619093D01*
X116738039Y-137187378D01*
X117059946Y-137669147D01*
X117541715Y-137991054D01*
X118110000Y-138104093D01*
X118678285Y-137991054D01*
X119160054Y-137669147D01*
X119380000Y-137339974D01*
X119599946Y-137669147D01*
X120081715Y-137991054D01*
X120650000Y-138104093D01*
X121218285Y-137991054D01*
X121700054Y-137669147D01*
X121920000Y-137339974D01*
X122139946Y-137669147D01*
X122621715Y-137991054D01*
X123190000Y-138104093D01*
X123758285Y-137991054D01*
X124240054Y-137669147D01*
X124460000Y-137339974D01*
X124679946Y-137669147D01*
X125161715Y-137991054D01*
X125730000Y-138104093D01*
X126298285Y-137991054D01*
X126780054Y-137669147D01*
X127000000Y-137339974D01*
X127219946Y-137669147D01*
X127701715Y-137991054D01*
X128270000Y-138104093D01*
X128838285Y-137991054D01*
X129320054Y-137669147D01*
X129540000Y-137339974D01*
X129759946Y-137669147D01*
X130241715Y-137991054D01*
X130810000Y-138104093D01*
X131378285Y-137991054D01*
X131860054Y-137669147D01*
X132080000Y-137339974D01*
X132299946Y-137669147D01*
X132781715Y-137991054D01*
X133350000Y-138104093D01*
X133918285Y-137991054D01*
X134400054Y-137669147D01*
X134620000Y-137339974D01*
X134839946Y-137669147D01*
X135321715Y-137991054D01*
X135890000Y-138104093D01*
X136458285Y-137991054D01*
X136940054Y-137669147D01*
X137160000Y-137339974D01*
X137379946Y-137669147D01*
X137861715Y-137991054D01*
X138430000Y-138104093D01*
X138998285Y-137991054D01*
X139480054Y-137669147D01*
X139700000Y-137339974D01*
X139919946Y-137669147D01*
X140401715Y-137991054D01*
X140970000Y-138104093D01*
X141538285Y-137991054D01*
X142020054Y-137669147D01*
X142240000Y-137339974D01*
X142459946Y-137669147D01*
X142941715Y-137991054D01*
X143510000Y-138104093D01*
X144078285Y-137991054D01*
X144560054Y-137669147D01*
X144780000Y-137339974D01*
X144999946Y-137669147D01*
X145481715Y-137991054D01*
X146050000Y-138104093D01*
X146618285Y-137991054D01*
X147100054Y-137669147D01*
X147320000Y-137339974D01*
X147539946Y-137669147D01*
X148021715Y-137991054D01*
X148590000Y-138104093D01*
X149158285Y-137991054D01*
X149640054Y-137669147D01*
X149867702Y-137328447D01*
X149934817Y-137471358D01*
X150363076Y-137861645D01*
X150773110Y-138031476D01*
X151003000Y-137910155D01*
X151003000Y-136717000D01*
X150983000Y-136717000D01*
X150983000Y-136463000D01*
X151003000Y-136463000D01*
X151003000Y-135269845D01*
X151257000Y-135269845D01*
X151257000Y-136463000D01*
X151277000Y-136463000D01*
X151277000Y-136717000D01*
X151257000Y-136717000D01*
X151257000Y-137910155D01*
X151486890Y-138031476D01*
X151896924Y-137861645D01*
X152325183Y-137471358D01*
X152392298Y-137328447D01*
X152619946Y-137669147D01*
X153101715Y-137991054D01*
X153670000Y-138104093D01*
X154238285Y-137991054D01*
X154720054Y-137669147D01*
X154940000Y-137339974D01*
X155159946Y-137669147D01*
X155641715Y-137991054D01*
X156210000Y-138104093D01*
X156778285Y-137991054D01*
X157260054Y-137669147D01*
X157480000Y-137339974D01*
X157699946Y-137669147D01*
X158181715Y-137991054D01*
X158750000Y-138104093D01*
X159318285Y-137991054D01*
X159800054Y-137669147D01*
X160020000Y-137339974D01*
X160239946Y-137669147D01*
X160721715Y-137991054D01*
X161290000Y-138104093D01*
X161858285Y-137991054D01*
X162340054Y-137669147D01*
X162560000Y-137339974D01*
X162779946Y-137669147D01*
X163261715Y-137991054D01*
X163830000Y-138104093D01*
X164398285Y-137991054D01*
X164880054Y-137669147D01*
X164909403Y-137625223D01*
X164981673Y-137799698D01*
X165160301Y-137978327D01*
X165393690Y-138075000D01*
X166084250Y-138075000D01*
X166243000Y-137916250D01*
X166243000Y-136717000D01*
X166497000Y-136717000D01*
X166497000Y-137916250D01*
X166655750Y-138075000D01*
X167346310Y-138075000D01*
X167579699Y-137978327D01*
X167758327Y-137799698D01*
X167855000Y-137566309D01*
X167855000Y-136875750D01*
X167696250Y-136717000D01*
X166497000Y-136717000D01*
X166243000Y-136717000D01*
X166223000Y-136717000D01*
X166223000Y-136463000D01*
X166243000Y-136463000D01*
X166243000Y-135263750D01*
X166497000Y-135263750D01*
X166497000Y-136463000D01*
X167696250Y-136463000D01*
X167855000Y-136304250D01*
X167855000Y-135613691D01*
X167758327Y-135380302D01*
X167579699Y-135201673D01*
X167346310Y-135105000D01*
X166655750Y-135105000D01*
X166497000Y-135263750D01*
X166243000Y-135263750D01*
X166084250Y-135105000D01*
X165393690Y-135105000D01*
X165160301Y-135201673D01*
X164981673Y-135380302D01*
X164909403Y-135554777D01*
X164880054Y-135510853D01*
X164398285Y-135188946D01*
X163830000Y-135075907D01*
X163261715Y-135188946D01*
X162779946Y-135510853D01*
X162560000Y-135840026D01*
X162340054Y-135510853D01*
X161858285Y-135188946D01*
X161290000Y-135075907D01*
X160721715Y-135188946D01*
X160239946Y-135510853D01*
X160020000Y-135840026D01*
X159800054Y-135510853D01*
X159318285Y-135188946D01*
X158750000Y-135075907D01*
X158181715Y-135188946D01*
X157699946Y-135510853D01*
X157480000Y-135840026D01*
X157260054Y-135510853D01*
X156778285Y-135188946D01*
X156210000Y-135075907D01*
X155641715Y-135188946D01*
X155159946Y-135510853D01*
X154940000Y-135840026D01*
X154720054Y-135510853D01*
X154238285Y-135188946D01*
X153670000Y-135075907D01*
X153101715Y-135188946D01*
X152619946Y-135510853D01*
X152392298Y-135851553D01*
X152325183Y-135708642D01*
X151896924Y-135318355D01*
X151486890Y-135148524D01*
X151257000Y-135269845D01*
X151003000Y-135269845D01*
X150773110Y-135148524D01*
X150363076Y-135318355D01*
X149934817Y-135708642D01*
X149867702Y-135851553D01*
X149640054Y-135510853D01*
X149158285Y-135188946D01*
X148590000Y-135075907D01*
X148021715Y-135188946D01*
X147539946Y-135510853D01*
X147320000Y-135840026D01*
X147100054Y-135510853D01*
X146618285Y-135188946D01*
X146050000Y-135075907D01*
X145481715Y-135188946D01*
X144999946Y-135510853D01*
X144780000Y-135840026D01*
X144560054Y-135510853D01*
X144078285Y-135188946D01*
X143510000Y-135075907D01*
X142941715Y-135188946D01*
X142459946Y-135510853D01*
X142240000Y-135840026D01*
X142020054Y-135510853D01*
X141538285Y-135188946D01*
X140970000Y-135075907D01*
X140401715Y-135188946D01*
X139919946Y-135510853D01*
X139700000Y-135840026D01*
X139480054Y-135510853D01*
X138998285Y-135188946D01*
X138430000Y-135075907D01*
X137861715Y-135188946D01*
X137379946Y-135510853D01*
X137160000Y-135840026D01*
X136940054Y-135510853D01*
X136458285Y-135188946D01*
X135890000Y-135075907D01*
X135321715Y-135188946D01*
X134839946Y-135510853D01*
X134620000Y-135840026D01*
X134400054Y-135510853D01*
X133918285Y-135188946D01*
X133350000Y-135075907D01*
X132781715Y-135188946D01*
X132299946Y-135510853D01*
X132080000Y-135840026D01*
X131860054Y-135510853D01*
X131378285Y-135188946D01*
X130810000Y-135075907D01*
X130241715Y-135188946D01*
X129759946Y-135510853D01*
X129540000Y-135840026D01*
X129320054Y-135510853D01*
X128838285Y-135188946D01*
X128270000Y-135075907D01*
X127701715Y-135188946D01*
X127219946Y-135510853D01*
X127000000Y-135840026D01*
X126780054Y-135510853D01*
X126298285Y-135188946D01*
X125730000Y-135075907D01*
X125161715Y-135188946D01*
X124679946Y-135510853D01*
X124460000Y-135840026D01*
X124240054Y-135510853D01*
X123758285Y-135188946D01*
X123190000Y-135075907D01*
X122621715Y-135188946D01*
X122139946Y-135510853D01*
X121920000Y-135840026D01*
X121700054Y-135510853D01*
X121218285Y-135188946D01*
X120650000Y-135075907D01*
X120081715Y-135188946D01*
X119599946Y-135510853D01*
X119380000Y-135840026D01*
X119160054Y-135510853D01*
X118678285Y-135188946D01*
X118110000Y-135075907D01*
X117541715Y-135188946D01*
X117059946Y-135510853D01*
X116738039Y-135992622D01*
X116625000Y-136560907D01*
X113297440Y-136560907D01*
X113297440Y-134950000D01*
X113253162Y-134714683D01*
X113114090Y-134498559D01*
X112901890Y-134353569D01*
X112793893Y-134331699D01*
X113071645Y-134026924D01*
X113241476Y-133616890D01*
X113120155Y-133387000D01*
X111927000Y-133387000D01*
X111927000Y-133407000D01*
X111673000Y-133407000D01*
X111673000Y-133387000D01*
X110479845Y-133387000D01*
X110358524Y-133616890D01*
X110528355Y-134026924D01*
X110804501Y-134329937D01*
X110714683Y-134346838D01*
X110498559Y-134485910D01*
X110353569Y-134698110D01*
X110302560Y-134950000D01*
X108402910Y-134950000D01*
X108229147Y-134689946D01*
X108187548Y-134662150D01*
X108235317Y-134653162D01*
X108451441Y-134514090D01*
X108596431Y-134301890D01*
X108647440Y-134050000D01*
X108647440Y-132903110D01*
X110358524Y-132903110D01*
X110479845Y-133133000D01*
X111673000Y-133133000D01*
X111673000Y-131939181D01*
X111927000Y-131939181D01*
X111927000Y-133133000D01*
X113120155Y-133133000D01*
X113241476Y-132903110D01*
X113071645Y-132493076D01*
X112681358Y-132064817D01*
X112156892Y-131818514D01*
X111927000Y-131939181D01*
X111673000Y-131939181D01*
X111443108Y-131818514D01*
X110918642Y-132064817D01*
X110528355Y-132493076D01*
X110358524Y-132903110D01*
X108647440Y-132903110D01*
X108647440Y-132350000D01*
X108603162Y-132114683D01*
X108464090Y-131898559D01*
X108251890Y-131753569D01*
X108000000Y-131702560D01*
X106300000Y-131702560D01*
X106064683Y-131746838D01*
X105848559Y-131885910D01*
X105703569Y-132098110D01*
X105652560Y-132350000D01*
X105652560Y-134050000D01*
X105696838Y-134285317D01*
X105835910Y-134501441D01*
X106048110Y-134646431D01*
X106115541Y-134660086D01*
X106070853Y-134689946D01*
X105748946Y-135171715D01*
X105635907Y-135740000D01*
X104927000Y-135740000D01*
X104927000Y-131480907D01*
X116625000Y-131480907D01*
X116625000Y-131539093D01*
X116738039Y-132107378D01*
X117059946Y-132589147D01*
X117541715Y-132911054D01*
X118110000Y-133024093D01*
X118678285Y-132911054D01*
X119160054Y-132589147D01*
X119380000Y-132259974D01*
X119599946Y-132589147D01*
X120081715Y-132911054D01*
X120650000Y-133024093D01*
X121218285Y-132911054D01*
X121700054Y-132589147D01*
X121920000Y-132259974D01*
X122139946Y-132589147D01*
X122621715Y-132911054D01*
X123190000Y-133024093D01*
X123758285Y-132911054D01*
X124240054Y-132589147D01*
X124460000Y-132259974D01*
X124679946Y-132589147D01*
X125161715Y-132911054D01*
X125730000Y-133024093D01*
X126298285Y-132911054D01*
X126780054Y-132589147D01*
X127000000Y-132259974D01*
X127219946Y-132589147D01*
X127701715Y-132911054D01*
X128270000Y-133024093D01*
X128838285Y-132911054D01*
X129320054Y-132589147D01*
X129540000Y-132259974D01*
X129759946Y-132589147D01*
X130241715Y-132911054D01*
X130810000Y-133024093D01*
X131378285Y-132911054D01*
X131860054Y-132589147D01*
X132080000Y-132259974D01*
X132299946Y-132589147D01*
X132781715Y-132911054D01*
X133350000Y-133024093D01*
X133918285Y-132911054D01*
X134400054Y-132589147D01*
X134620000Y-132259974D01*
X134839946Y-132589147D01*
X135321715Y-132911054D01*
X135890000Y-133024093D01*
X136458285Y-132911054D01*
X136940054Y-132589147D01*
X137160000Y-132259974D01*
X137379946Y-132589147D01*
X137861715Y-132911054D01*
X138430000Y-133024093D01*
X138998285Y-132911054D01*
X139480054Y-132589147D01*
X139700000Y-132259974D01*
X139919946Y-132589147D01*
X140401715Y-132911054D01*
X140970000Y-133024093D01*
X141538285Y-132911054D01*
X142020054Y-132589147D01*
X142240000Y-132259974D01*
X142459946Y-132589147D01*
X142941715Y-132911054D01*
X143510000Y-133024093D01*
X144078285Y-132911054D01*
X144560054Y-132589147D01*
X144780000Y-132259974D01*
X144999946Y-132589147D01*
X145481715Y-132911054D01*
X146050000Y-133024093D01*
X146618285Y-132911054D01*
X147100054Y-132589147D01*
X147320000Y-132259974D01*
X147539946Y-132589147D01*
X148021715Y-132911054D01*
X148590000Y-133024093D01*
X149158285Y-132911054D01*
X149640054Y-132589147D01*
X149867702Y-132248447D01*
X149934817Y-132391358D01*
X150363076Y-132781645D01*
X150773110Y-132951476D01*
X151003000Y-132830155D01*
X151003000Y-131637000D01*
X150983000Y-131637000D01*
X150983000Y-131383000D01*
X151003000Y-131383000D01*
X151003000Y-130189845D01*
X151257000Y-130189845D01*
X151257000Y-131383000D01*
X151277000Y-131383000D01*
X151277000Y-131637000D01*
X151257000Y-131637000D01*
X151257000Y-132830155D01*
X151486890Y-132951476D01*
X151896924Y-132781645D01*
X152325183Y-132391358D01*
X152392298Y-132248447D01*
X152619946Y-132589147D01*
X153101715Y-132911054D01*
X153670000Y-133024093D01*
X154238285Y-132911054D01*
X154720054Y-132589147D01*
X154940000Y-132259974D01*
X155159946Y-132589147D01*
X155641715Y-132911054D01*
X156210000Y-133024093D01*
X156778285Y-132911054D01*
X157260054Y-132589147D01*
X157480000Y-132259974D01*
X157699946Y-132589147D01*
X158181715Y-132911054D01*
X158750000Y-133024093D01*
X159318285Y-132911054D01*
X159800054Y-132589147D01*
X160020000Y-132259974D01*
X160239946Y-132589147D01*
X160721715Y-132911054D01*
X161290000Y-133024093D01*
X161858285Y-132911054D01*
X162340054Y-132589147D01*
X162560000Y-132259974D01*
X162779946Y-132589147D01*
X163261715Y-132911054D01*
X163830000Y-133024093D01*
X164398285Y-132911054D01*
X164880054Y-132589147D01*
X164909403Y-132545223D01*
X164981673Y-132719698D01*
X165160301Y-132898327D01*
X165393690Y-132995000D01*
X166084250Y-132995000D01*
X166243000Y-132836250D01*
X166243000Y-131637000D01*
X166497000Y-131637000D01*
X166497000Y-132836250D01*
X166655750Y-132995000D01*
X167346310Y-132995000D01*
X167579699Y-132898327D01*
X167758327Y-132719698D01*
X167855000Y-132486309D01*
X167855000Y-131795750D01*
X167696250Y-131637000D01*
X166497000Y-131637000D01*
X166243000Y-131637000D01*
X166223000Y-131637000D01*
X166223000Y-131383000D01*
X166243000Y-131383000D01*
X166243000Y-130183750D01*
X166497000Y-130183750D01*
X166497000Y-131383000D01*
X167696250Y-131383000D01*
X167855000Y-131224250D01*
X167855000Y-130533691D01*
X167758327Y-130300302D01*
X167579699Y-130121673D01*
X167346310Y-130025000D01*
X166655750Y-130025000D01*
X166497000Y-130183750D01*
X166243000Y-130183750D01*
X166084250Y-130025000D01*
X165393690Y-130025000D01*
X165160301Y-130121673D01*
X164981673Y-130300302D01*
X164909403Y-130474777D01*
X164880054Y-130430853D01*
X164398285Y-130108946D01*
X163830000Y-129995907D01*
X163261715Y-130108946D01*
X162779946Y-130430853D01*
X162560000Y-130760026D01*
X162340054Y-130430853D01*
X161858285Y-130108946D01*
X161290000Y-129995907D01*
X160721715Y-130108946D01*
X160239946Y-130430853D01*
X160020000Y-130760026D01*
X159800054Y-130430853D01*
X159318285Y-130108946D01*
X158750000Y-129995907D01*
X158181715Y-130108946D01*
X157699946Y-130430853D01*
X157480000Y-130760026D01*
X157260054Y-130430853D01*
X156778285Y-130108946D01*
X156210000Y-129995907D01*
X155641715Y-130108946D01*
X155159946Y-130430853D01*
X154940000Y-130760026D01*
X154720054Y-130430853D01*
X154238285Y-130108946D01*
X153670000Y-129995907D01*
X153101715Y-130108946D01*
X152619946Y-130430853D01*
X152392298Y-130771553D01*
X152325183Y-130628642D01*
X151896924Y-130238355D01*
X151486890Y-130068524D01*
X151257000Y-130189845D01*
X151003000Y-130189845D01*
X150773110Y-130068524D01*
X150363076Y-130238355D01*
X149934817Y-130628642D01*
X149867702Y-130771553D01*
X149640054Y-130430853D01*
X149158285Y-130108946D01*
X148590000Y-129995907D01*
X148021715Y-130108946D01*
X147539946Y-130430853D01*
X147320000Y-130760026D01*
X147100054Y-130430853D01*
X146618285Y-130108946D01*
X146050000Y-129995907D01*
X145481715Y-130108946D01*
X144999946Y-130430853D01*
X144780000Y-130760026D01*
X144560054Y-130430853D01*
X144078285Y-130108946D01*
X143510000Y-129995907D01*
X142941715Y-130108946D01*
X142459946Y-130430853D01*
X142240000Y-130760026D01*
X142020054Y-130430853D01*
X141538285Y-130108946D01*
X140970000Y-129995907D01*
X140401715Y-130108946D01*
X139919946Y-130430853D01*
X139700000Y-130760026D01*
X139480054Y-130430853D01*
X138998285Y-130108946D01*
X138430000Y-129995907D01*
X137861715Y-130108946D01*
X137379946Y-130430853D01*
X137160000Y-130760026D01*
X136940054Y-130430853D01*
X136458285Y-130108946D01*
X135890000Y-129995907D01*
X135321715Y-130108946D01*
X134839946Y-130430853D01*
X134620000Y-130760026D01*
X134400054Y-130430853D01*
X133918285Y-130108946D01*
X133350000Y-129995907D01*
X132781715Y-130108946D01*
X132299946Y-130430853D01*
X132080000Y-130760026D01*
X131860054Y-130430853D01*
X131378285Y-130108946D01*
X130810000Y-129995907D01*
X130241715Y-130108946D01*
X129759946Y-130430853D01*
X129540000Y-130760026D01*
X129320054Y-130430853D01*
X128838285Y-130108946D01*
X128270000Y-129995907D01*
X127701715Y-130108946D01*
X127219946Y-130430853D01*
X127000000Y-130760026D01*
X126780054Y-130430853D01*
X126298285Y-130108946D01*
X125730000Y-129995907D01*
X125161715Y-130108946D01*
X124679946Y-130430853D01*
X124460000Y-130760026D01*
X124240054Y-130430853D01*
X123758285Y-130108946D01*
X123190000Y-129995907D01*
X122621715Y-130108946D01*
X122139946Y-130430853D01*
X121920000Y-130760026D01*
X121700054Y-130430853D01*
X121218285Y-130108946D01*
X120650000Y-129995907D01*
X120081715Y-130108946D01*
X119599946Y-130430853D01*
X119380000Y-130760026D01*
X119160054Y-130430853D01*
X118678285Y-130108946D01*
X118110000Y-129995907D01*
X117541715Y-130108946D01*
X117059946Y-130430853D01*
X116738039Y-130912622D01*
X116625000Y-131480907D01*
X104927000Y-131480907D01*
X104927000Y-130800000D01*
X104916994Y-130750590D01*
X104888553Y-130708965D01*
X104846159Y-130681685D01*
X104800000Y-130673000D01*
X95927000Y-130673000D01*
X95927000Y-128985167D01*
X119864838Y-128985167D01*
X120006883Y-129328943D01*
X120269673Y-129592192D01*
X120613201Y-129734838D01*
X120985167Y-129735162D01*
X121328943Y-129593117D01*
X121592192Y-129330327D01*
X121734838Y-128986799D01*
X121734879Y-128939923D01*
X123114802Y-127560000D01*
X165485198Y-127560000D01*
X167262599Y-129337401D01*
X167509161Y-129502148D01*
X167800000Y-129560000D01*
X174800000Y-129560000D01*
X175090839Y-129502148D01*
X175337401Y-129337401D01*
X177792968Y-126881834D01*
X181514543Y-126881834D01*
X181914853Y-127850658D01*
X182655443Y-128592542D01*
X183623567Y-128994542D01*
X184671834Y-128995457D01*
X185640658Y-128595147D01*
X186382542Y-127854557D01*
X186784542Y-126886433D01*
X186785457Y-125838166D01*
X186385147Y-124869342D01*
X185644557Y-124127458D01*
X184676433Y-123725458D01*
X183628166Y-123724543D01*
X182659342Y-124124853D01*
X181917458Y-124865443D01*
X181515458Y-125833567D01*
X181514543Y-126881834D01*
X177792968Y-126881834D01*
X181337401Y-123337401D01*
X181502148Y-123090840D01*
X181560000Y-122800000D01*
X181560000Y-120367745D01*
X182051861Y-120367745D01*
X182125995Y-120613864D01*
X182663223Y-120806965D01*
X183233454Y-120779778D01*
X183634005Y-120613864D01*
X183708139Y-120367745D01*
X182880000Y-119539605D01*
X182051861Y-120367745D01*
X181560000Y-120367745D01*
X181560000Y-119954339D01*
X181626136Y-120114005D01*
X181872255Y-120188139D01*
X182700395Y-119360000D01*
X181872255Y-118531861D01*
X181626136Y-118605995D01*
X181560000Y-118789993D01*
X181560000Y-117153109D01*
X181662757Y-117401800D01*
X182066077Y-117805824D01*
X182458060Y-117968590D01*
X182125995Y-118106136D01*
X182051861Y-118352255D01*
X182880000Y-119180395D01*
X183708139Y-118352255D01*
X183634005Y-118106136D01*
X183278062Y-117978196D01*
X183691800Y-117807243D01*
X184095824Y-117403923D01*
X184314750Y-116876691D01*
X184315248Y-116305813D01*
X184097243Y-115778200D01*
X183693923Y-115374176D01*
X183286150Y-115204854D01*
X183691800Y-115037243D01*
X184095824Y-114633923D01*
X184314750Y-114106691D01*
X184315248Y-113535813D01*
X184097243Y-113008200D01*
X183693923Y-112604176D01*
X183286150Y-112434854D01*
X183691800Y-112267243D01*
X184095824Y-111863923D01*
X184314750Y-111336691D01*
X184315248Y-110765813D01*
X184097243Y-110238200D01*
X183693923Y-109834176D01*
X183286150Y-109664854D01*
X183691800Y-109497243D01*
X184095824Y-109093923D01*
X184314750Y-108566691D01*
X184315248Y-107995813D01*
X184097243Y-107468200D01*
X183693923Y-107064176D01*
X183286150Y-106894854D01*
X183691800Y-106727243D01*
X184095824Y-106323923D01*
X184314750Y-105796691D01*
X184315248Y-105225813D01*
X184097243Y-104698200D01*
X183693923Y-104294176D01*
X183286150Y-104124854D01*
X183691800Y-103957243D01*
X184095824Y-103553923D01*
X184314750Y-103026691D01*
X184315248Y-102455813D01*
X184097243Y-101928200D01*
X183693923Y-101524176D01*
X183286150Y-101354854D01*
X183691800Y-101187243D01*
X184095824Y-100783923D01*
X184314750Y-100256691D01*
X184315248Y-99685813D01*
X184097243Y-99158200D01*
X183693923Y-98754176D01*
X183286150Y-98584854D01*
X183691800Y-98417243D01*
X184095824Y-98013923D01*
X184314750Y-97486691D01*
X184315248Y-96915813D01*
X184097243Y-96388200D01*
X183693923Y-95984176D01*
X183286150Y-95814854D01*
X183691800Y-95647243D01*
X184095824Y-95243923D01*
X184314750Y-94716691D01*
X184315248Y-94145813D01*
X184097243Y-93618200D01*
X183693923Y-93214176D01*
X183286150Y-93044854D01*
X183691800Y-92877243D01*
X184095824Y-92473923D01*
X184314750Y-91946691D01*
X184315248Y-91375813D01*
X184097243Y-90848200D01*
X183693923Y-90444176D01*
X183286150Y-90274854D01*
X183691800Y-90107243D01*
X184095824Y-89703923D01*
X184314750Y-89176691D01*
X184315248Y-88605813D01*
X184097243Y-88078200D01*
X183693923Y-87674176D01*
X183436874Y-87567440D01*
X183680000Y-87567440D01*
X183915317Y-87523162D01*
X183985023Y-87478307D01*
X183984752Y-87789187D01*
X184202757Y-88316800D01*
X184606077Y-88720824D01*
X185013850Y-88890146D01*
X184608200Y-89057757D01*
X184204176Y-89461077D01*
X183985250Y-89988309D01*
X183984752Y-90559187D01*
X184202757Y-91086800D01*
X184606077Y-91490824D01*
X185013850Y-91660146D01*
X184608200Y-91827757D01*
X184204176Y-92231077D01*
X183985250Y-92758309D01*
X183984752Y-93329187D01*
X184202757Y-93856800D01*
X184606077Y-94260824D01*
X185013850Y-94430146D01*
X184608200Y-94597757D01*
X184204176Y-95001077D01*
X183985250Y-95528309D01*
X183984752Y-96099187D01*
X184202757Y-96626800D01*
X184606077Y-97030824D01*
X185013850Y-97200146D01*
X184608200Y-97367757D01*
X184204176Y-97771077D01*
X183985250Y-98298309D01*
X183984752Y-98869187D01*
X184202757Y-99396800D01*
X184606077Y-99800824D01*
X185013850Y-99970146D01*
X184608200Y-100137757D01*
X184204176Y-100541077D01*
X183985250Y-101068309D01*
X183984752Y-101639187D01*
X184202757Y-102166800D01*
X184606077Y-102570824D01*
X185013850Y-102740146D01*
X184608200Y-102907757D01*
X184204176Y-103311077D01*
X183985250Y-103838309D01*
X183984752Y-104409187D01*
X184202757Y-104936800D01*
X184606077Y-105340824D01*
X185013850Y-105510146D01*
X184608200Y-105677757D01*
X184204176Y-106081077D01*
X183985250Y-106608309D01*
X183984752Y-107179187D01*
X184202757Y-107706800D01*
X184606077Y-108110824D01*
X185013850Y-108280146D01*
X184608200Y-108447757D01*
X184204176Y-108851077D01*
X183985250Y-109378309D01*
X183984752Y-109949187D01*
X184202757Y-110476800D01*
X184606077Y-110880824D01*
X185013850Y-111050146D01*
X184608200Y-111217757D01*
X184204176Y-111621077D01*
X183985250Y-112148309D01*
X183984752Y-112719187D01*
X184202757Y-113246800D01*
X184606077Y-113650824D01*
X185013850Y-113820146D01*
X184608200Y-113987757D01*
X184204176Y-114391077D01*
X183985250Y-114918309D01*
X183984752Y-115489187D01*
X184202757Y-116016800D01*
X184606077Y-116420824D01*
X185013850Y-116590146D01*
X184608200Y-116757757D01*
X184204176Y-117161077D01*
X183985250Y-117688309D01*
X183984752Y-118259187D01*
X184127224Y-118603995D01*
X183887745Y-118531861D01*
X183059605Y-119360000D01*
X183887745Y-120188139D01*
X184133864Y-120114005D01*
X184326965Y-119576777D01*
X184299778Y-119006546D01*
X184213011Y-118797072D01*
X184606077Y-119190824D01*
X185133309Y-119409750D01*
X185704187Y-119410248D01*
X186231800Y-119192243D01*
X186635824Y-118788923D01*
X186854750Y-118261691D01*
X186855248Y-117690813D01*
X186637243Y-117163200D01*
X186233923Y-116759176D01*
X185826150Y-116589854D01*
X186231800Y-116422243D01*
X186635824Y-116018923D01*
X186854750Y-115491691D01*
X186855248Y-114920813D01*
X186637243Y-114393200D01*
X186233923Y-113989176D01*
X185826150Y-113819854D01*
X186231800Y-113652243D01*
X186635824Y-113248923D01*
X186854750Y-112721691D01*
X186855248Y-112150813D01*
X186637243Y-111623200D01*
X186233923Y-111219176D01*
X185826150Y-111049854D01*
X186231800Y-110882243D01*
X186635824Y-110478923D01*
X186854750Y-109951691D01*
X186855248Y-109380813D01*
X186637243Y-108853200D01*
X186233923Y-108449176D01*
X185826150Y-108279854D01*
X186231800Y-108112243D01*
X186635824Y-107708923D01*
X186854750Y-107181691D01*
X186855248Y-106610813D01*
X186637243Y-106083200D01*
X186233923Y-105679176D01*
X185826150Y-105509854D01*
X186231800Y-105342243D01*
X186635824Y-104938923D01*
X186854750Y-104411691D01*
X186855248Y-103840813D01*
X186637243Y-103313200D01*
X186233923Y-102909176D01*
X185826150Y-102739854D01*
X186231800Y-102572243D01*
X186635824Y-102168923D01*
X186854750Y-101641691D01*
X186855248Y-101070813D01*
X186637243Y-100543200D01*
X186233923Y-100139176D01*
X185826150Y-99969854D01*
X186231800Y-99802243D01*
X186635824Y-99398923D01*
X186854750Y-98871691D01*
X186855248Y-98300813D01*
X186637243Y-97773200D01*
X186233923Y-97369176D01*
X185826150Y-97199854D01*
X186231800Y-97032243D01*
X186635824Y-96628923D01*
X186854750Y-96101691D01*
X186855248Y-95530813D01*
X186637243Y-95003200D01*
X186233923Y-94599176D01*
X185826150Y-94429854D01*
X186231800Y-94262243D01*
X186635824Y-93858923D01*
X186854750Y-93331691D01*
X186855248Y-92760813D01*
X186637243Y-92233200D01*
X186233923Y-91829176D01*
X185826150Y-91659854D01*
X186231800Y-91492243D01*
X186635824Y-91088923D01*
X186854750Y-90561691D01*
X186855248Y-89990813D01*
X186637243Y-89463200D01*
X186233923Y-89059176D01*
X185826150Y-88889854D01*
X186231800Y-88722243D01*
X186635824Y-88318923D01*
X186854750Y-87791691D01*
X186855248Y-87220813D01*
X186637243Y-86693200D01*
X186233923Y-86289176D01*
X185706691Y-86070250D01*
X185135813Y-86069752D01*
X184608200Y-86287757D01*
X184327440Y-86568028D01*
X184327440Y-85320000D01*
X184283162Y-85084683D01*
X184144090Y-84868559D01*
X183931890Y-84723569D01*
X183680000Y-84672560D01*
X182080000Y-84672560D01*
X181844683Y-84716838D01*
X181628559Y-84855910D01*
X181483569Y-85068110D01*
X181432560Y-85320000D01*
X181432560Y-86920000D01*
X181476838Y-87155317D01*
X181615910Y-87371441D01*
X181828110Y-87516431D01*
X182080000Y-87567440D01*
X182323087Y-87567440D01*
X182068200Y-87672757D01*
X181664176Y-88076077D01*
X181445250Y-88603309D01*
X181444752Y-89174187D01*
X181662757Y-89701800D01*
X182066077Y-90105824D01*
X182473850Y-90275146D01*
X182068200Y-90442757D01*
X181664176Y-90846077D01*
X181445250Y-91373309D01*
X181444752Y-91944187D01*
X181570415Y-92248316D01*
X181330327Y-92007808D01*
X180986799Y-91865162D01*
X180939923Y-91865121D01*
X178337401Y-89262599D01*
X178090839Y-89097852D01*
X177800000Y-89040000D01*
X171800000Y-89040000D01*
X171509160Y-89097852D01*
X171262599Y-89262599D01*
X162735009Y-97790189D01*
X162735162Y-97614833D01*
X162593117Y-97271057D01*
X162330327Y-97007808D01*
X161986799Y-96865162D01*
X161939923Y-96865121D01*
X159735122Y-94660320D01*
X159735162Y-94614833D01*
X159593117Y-94271057D01*
X159330327Y-94007808D01*
X158986799Y-93865162D01*
X158614833Y-93864838D01*
X158271057Y-94006883D01*
X158007808Y-94269673D01*
X157865162Y-94613201D01*
X157864838Y-94985167D01*
X158006883Y-95328943D01*
X158269673Y-95592192D01*
X158613201Y-95734838D01*
X158660077Y-95734879D01*
X160864878Y-97939680D01*
X160864838Y-97985167D01*
X161006883Y-98328943D01*
X161269673Y-98592192D01*
X161613201Y-98734838D01*
X161790206Y-98734992D01*
X160660320Y-99864878D01*
X160614833Y-99864838D01*
X160271057Y-100006883D01*
X160007808Y-100269673D01*
X159865162Y-100613201D01*
X159864838Y-100985167D01*
X160006883Y-101328943D01*
X160269673Y-101592192D01*
X160613201Y-101734838D01*
X160985167Y-101735162D01*
X161300351Y-101604931D01*
X161613201Y-101734838D01*
X161985167Y-101735162D01*
X162328943Y-101593117D01*
X162592192Y-101330327D01*
X162734838Y-100986799D01*
X162734879Y-100939923D01*
X166939680Y-96735122D01*
X166985167Y-96735162D01*
X167328943Y-96593117D01*
X167592192Y-96330327D01*
X167734838Y-95986799D01*
X167735162Y-95614833D01*
X167593117Y-95271057D01*
X167498514Y-95176288D01*
X172114802Y-90560000D01*
X177485198Y-90560000D01*
X179864878Y-92939680D01*
X179864838Y-92985167D01*
X180006883Y-93328943D01*
X180269673Y-93592192D01*
X180613201Y-93734838D01*
X180985167Y-93735162D01*
X181328943Y-93593117D01*
X181592192Y-93330327D01*
X181734838Y-92986799D01*
X181735162Y-92614833D01*
X181685459Y-92494541D01*
X182066077Y-92875824D01*
X182473850Y-93045146D01*
X182068200Y-93212757D01*
X181664176Y-93616077D01*
X181445250Y-94143309D01*
X181444752Y-94714187D01*
X181662757Y-95241800D01*
X182066077Y-95645824D01*
X182473850Y-95815146D01*
X182068200Y-95982757D01*
X181664176Y-96386077D01*
X181445250Y-96913309D01*
X181445067Y-97122749D01*
X181330327Y-97007808D01*
X180986799Y-96865162D01*
X180614833Y-96864838D01*
X180271057Y-97006883D01*
X180007808Y-97269673D01*
X179865162Y-97613201D01*
X179865121Y-97660077D01*
X177560000Y-99965198D01*
X177560000Y-96114802D01*
X178939680Y-94735122D01*
X178985167Y-94735162D01*
X179328943Y-94593117D01*
X179592192Y-94330327D01*
X179734838Y-93986799D01*
X179735162Y-93614833D01*
X179593117Y-93271057D01*
X179330327Y-93007808D01*
X178986799Y-92865162D01*
X178614833Y-92864838D01*
X178271057Y-93006883D01*
X178007808Y-93269673D01*
X177865162Y-93613201D01*
X177865121Y-93660077D01*
X176560000Y-94965198D01*
X176560000Y-92362463D01*
X176592192Y-92330327D01*
X176734838Y-91986799D01*
X176735162Y-91614833D01*
X176593117Y-91271057D01*
X176330327Y-91007808D01*
X175986799Y-90865162D01*
X175614833Y-90864838D01*
X175299649Y-90995069D01*
X174986799Y-90865162D01*
X174614833Y-90864838D01*
X174271057Y-91006883D01*
X174007808Y-91269673D01*
X173865162Y-91613201D01*
X173864838Y-91985167D01*
X174006883Y-92328943D01*
X174040000Y-92362118D01*
X174040000Y-93887253D01*
X173986799Y-93865162D01*
X173614833Y-93864838D01*
X173271057Y-94006883D01*
X173007808Y-94269673D01*
X172865162Y-94613201D01*
X172864838Y-94985167D01*
X173006883Y-95328943D01*
X173040000Y-95362118D01*
X173040000Y-96887253D01*
X172986799Y-96865162D01*
X172614833Y-96864838D01*
X172271057Y-97006883D01*
X172007808Y-97269673D01*
X171865162Y-97613201D01*
X171864838Y-97985167D01*
X172006883Y-98328943D01*
X172040000Y-98362118D01*
X172040000Y-98887253D01*
X171986799Y-98865162D01*
X171614833Y-98864838D01*
X171271057Y-99006883D01*
X171007808Y-99269673D01*
X170865162Y-99613201D01*
X170864838Y-99985167D01*
X171006883Y-100328943D01*
X171040000Y-100362118D01*
X171040000Y-107887253D01*
X170986799Y-107865162D01*
X170734944Y-107864943D01*
X170735162Y-107614833D01*
X170593117Y-107271057D01*
X170330327Y-107007808D01*
X169986799Y-106865162D01*
X169614833Y-106864838D01*
X169271057Y-107006883D01*
X169007808Y-107269673D01*
X168865162Y-107613201D01*
X168864838Y-107985167D01*
X169006883Y-108328943D01*
X169040000Y-108362118D01*
X169040000Y-109485198D01*
X160485198Y-118040000D01*
X148362463Y-118040000D01*
X148330327Y-118007808D01*
X147986799Y-117865162D01*
X147614833Y-117864838D01*
X147271057Y-118006883D01*
X147007808Y-118269673D01*
X146865162Y-118613201D01*
X146864838Y-118985167D01*
X146887494Y-119040000D01*
X145362463Y-119040000D01*
X145330327Y-119007808D01*
X144986799Y-118865162D01*
X144614833Y-118864838D01*
X144271057Y-119006883D01*
X144007808Y-119269673D01*
X143865162Y-119613201D01*
X143864838Y-119985167D01*
X143887494Y-120040000D01*
X142362463Y-120040000D01*
X142330327Y-120007808D01*
X141986799Y-119865162D01*
X141614833Y-119864838D01*
X141271057Y-120006883D01*
X141007808Y-120269673D01*
X140865162Y-120613201D01*
X140864838Y-120985167D01*
X140887494Y-121040000D01*
X139362463Y-121040000D01*
X139330327Y-121007808D01*
X138986799Y-120865162D01*
X138614833Y-120864838D01*
X138271057Y-121006883D01*
X138007808Y-121269673D01*
X137865162Y-121613201D01*
X137864838Y-121985167D01*
X137887494Y-122040000D01*
X136362463Y-122040000D01*
X136330327Y-122007808D01*
X135986799Y-121865162D01*
X135614833Y-121864838D01*
X135271057Y-122006883D01*
X135007808Y-122269673D01*
X134865162Y-122613201D01*
X134864838Y-122985167D01*
X134887494Y-123040000D01*
X134362463Y-123040000D01*
X134330327Y-123007808D01*
X133986799Y-122865162D01*
X133614833Y-122864838D01*
X133271057Y-123006883D01*
X133007808Y-123269673D01*
X132865162Y-123613201D01*
X132864838Y-123985167D01*
X132887494Y-124040000D01*
X130362463Y-124040000D01*
X130330327Y-124007808D01*
X129986799Y-123865162D01*
X129614833Y-123864838D01*
X129271057Y-124006883D01*
X129007808Y-124269673D01*
X128865162Y-124613201D01*
X128864838Y-124985167D01*
X128887494Y-125040000D01*
X126362463Y-125040000D01*
X126330327Y-125007808D01*
X125986799Y-124865162D01*
X125614833Y-124864838D01*
X125271057Y-125006883D01*
X125007808Y-125269673D01*
X124865162Y-125613201D01*
X124864838Y-125985167D01*
X124887494Y-126040000D01*
X122800000Y-126040000D01*
X122509161Y-126097852D01*
X122262599Y-126262599D01*
X120660320Y-127864878D01*
X120614833Y-127864838D01*
X120271057Y-128006883D01*
X120007808Y-128269673D01*
X119865162Y-128613201D01*
X119864838Y-128985167D01*
X95927000Y-128985167D01*
X95927000Y-115985167D01*
X140864838Y-115985167D01*
X141006883Y-116328943D01*
X141269673Y-116592192D01*
X141613201Y-116734838D01*
X141660077Y-116734879D01*
X142864878Y-117939680D01*
X142864838Y-117985167D01*
X143006883Y-118328943D01*
X143269673Y-118592192D01*
X143613201Y-118734838D01*
X143985167Y-118735162D01*
X144328943Y-118593117D01*
X144592192Y-118330327D01*
X144734838Y-117986799D01*
X144735162Y-117614833D01*
X144593117Y-117271057D01*
X144330327Y-117007808D01*
X143986799Y-116865162D01*
X143939923Y-116865121D01*
X142735122Y-115660320D01*
X142735162Y-115614833D01*
X142593117Y-115271057D01*
X142330327Y-115007808D01*
X141986799Y-114865162D01*
X141614833Y-114864838D01*
X141271057Y-115006883D01*
X141007808Y-115269673D01*
X140865162Y-115613201D01*
X140864838Y-115985167D01*
X95927000Y-115985167D01*
X95927000Y-113927000D01*
X110800000Y-113927000D01*
X110846159Y-113918315D01*
X110888553Y-113891035D01*
X110916994Y-113849410D01*
X110927000Y-113800000D01*
X110927000Y-111985167D01*
X148864838Y-111985167D01*
X149006883Y-112328943D01*
X149269673Y-112592192D01*
X149613201Y-112734838D01*
X149865056Y-112735057D01*
X149864838Y-112985167D01*
X150006883Y-113328943D01*
X150269673Y-113592192D01*
X150613201Y-113734838D01*
X150985167Y-113735162D01*
X151328943Y-113593117D01*
X151362118Y-113560000D01*
X154237537Y-113560000D01*
X154269673Y-113592192D01*
X154613201Y-113734838D01*
X154985167Y-113735162D01*
X155328943Y-113593117D01*
X155592192Y-113330327D01*
X155734838Y-112986799D01*
X155735162Y-112614833D01*
X155593117Y-112271057D01*
X155330327Y-112007808D01*
X154986799Y-111865162D01*
X154734944Y-111864943D01*
X154735162Y-111614833D01*
X154593117Y-111271057D01*
X154330327Y-111007808D01*
X153986799Y-110865162D01*
X153614833Y-110864838D01*
X153271057Y-111006883D01*
X153237882Y-111040000D01*
X150362463Y-111040000D01*
X150330327Y-111007808D01*
X149986799Y-110865162D01*
X149614833Y-110864838D01*
X149271057Y-111006883D01*
X149007808Y-111269673D01*
X148865162Y-111613201D01*
X148864838Y-111985167D01*
X110927000Y-111985167D01*
X110927000Y-108620907D01*
X116625000Y-108620907D01*
X116625000Y-108679093D01*
X116738039Y-109247378D01*
X117059946Y-109729147D01*
X117541715Y-110051054D01*
X118110000Y-110164093D01*
X118678285Y-110051054D01*
X119160054Y-109729147D01*
X119380000Y-109399974D01*
X119599946Y-109729147D01*
X120081715Y-110051054D01*
X120650000Y-110164093D01*
X121218285Y-110051054D01*
X121700054Y-109729147D01*
X121920000Y-109399974D01*
X122139946Y-109729147D01*
X122621715Y-110051054D01*
X123190000Y-110164093D01*
X123758285Y-110051054D01*
X124240054Y-109729147D01*
X124460000Y-109399974D01*
X124679946Y-109729147D01*
X125161715Y-110051054D01*
X125730000Y-110164093D01*
X126298285Y-110051054D01*
X126780054Y-109729147D01*
X127000000Y-109399974D01*
X127219946Y-109729147D01*
X127701715Y-110051054D01*
X128270000Y-110164093D01*
X128838285Y-110051054D01*
X129320054Y-109729147D01*
X129540000Y-109399974D01*
X129759946Y-109729147D01*
X130241715Y-110051054D01*
X130810000Y-110164093D01*
X131378285Y-110051054D01*
X131860054Y-109729147D01*
X132087702Y-109388447D01*
X132154817Y-109531358D01*
X132583076Y-109921645D01*
X132993110Y-110091476D01*
X133223000Y-109970155D01*
X133223000Y-108777000D01*
X133203000Y-108777000D01*
X133203000Y-108523000D01*
X133223000Y-108523000D01*
X133223000Y-107329845D01*
X133477000Y-107329845D01*
X133477000Y-108523000D01*
X133497000Y-108523000D01*
X133497000Y-108777000D01*
X133477000Y-108777000D01*
X133477000Y-109970155D01*
X133706890Y-110091476D01*
X134116924Y-109921645D01*
X134545183Y-109531358D01*
X134612298Y-109388447D01*
X134839946Y-109729147D01*
X135321715Y-110051054D01*
X135890000Y-110164093D01*
X136458285Y-110051054D01*
X136940054Y-109729147D01*
X137160000Y-109399974D01*
X137379946Y-109729147D01*
X137861715Y-110051054D01*
X138430000Y-110164093D01*
X138998285Y-110051054D01*
X139480054Y-109729147D01*
X139700000Y-109399974D01*
X139919946Y-109729147D01*
X140401715Y-110051054D01*
X140970000Y-110164093D01*
X141538285Y-110051054D01*
X142020054Y-109729147D01*
X142240000Y-109399974D01*
X142459946Y-109729147D01*
X142941715Y-110051054D01*
X143510000Y-110164093D01*
X144078285Y-110051054D01*
X144560054Y-109729147D01*
X144780000Y-109399974D01*
X144999946Y-109729147D01*
X145481715Y-110051054D01*
X146050000Y-110164093D01*
X146618285Y-110051054D01*
X147100054Y-109729147D01*
X147320000Y-109399974D01*
X147539946Y-109729147D01*
X148021715Y-110051054D01*
X148590000Y-110164093D01*
X149158285Y-110051054D01*
X149640054Y-109729147D01*
X149860000Y-109399974D01*
X150079946Y-109729147D01*
X150561715Y-110051054D01*
X151130000Y-110164093D01*
X151698285Y-110051054D01*
X152180054Y-109729147D01*
X152400000Y-109399974D01*
X152619946Y-109729147D01*
X153101715Y-110051054D01*
X153670000Y-110164093D01*
X154238285Y-110051054D01*
X154720054Y-109729147D01*
X154940000Y-109399974D01*
X155159946Y-109729147D01*
X155641715Y-110051054D01*
X156210000Y-110164093D01*
X156778285Y-110051054D01*
X157260054Y-109729147D01*
X157480000Y-109399974D01*
X157699946Y-109729147D01*
X158181715Y-110051054D01*
X158750000Y-110164093D01*
X159318285Y-110051054D01*
X159800054Y-109729147D01*
X160020000Y-109399974D01*
X160239946Y-109729147D01*
X160721715Y-110051054D01*
X161290000Y-110164093D01*
X161858285Y-110051054D01*
X162340054Y-109729147D01*
X162560000Y-109399974D01*
X162779946Y-109729147D01*
X163261715Y-110051054D01*
X163830000Y-110164093D01*
X164398285Y-110051054D01*
X164880054Y-109729147D01*
X164907850Y-109687548D01*
X164916838Y-109735317D01*
X165055910Y-109951441D01*
X165268110Y-110096431D01*
X165520000Y-110147440D01*
X167220000Y-110147440D01*
X167455317Y-110103162D01*
X167671441Y-109964090D01*
X167816431Y-109751890D01*
X167867440Y-109500000D01*
X167867440Y-107800000D01*
X167823162Y-107564683D01*
X167684090Y-107348559D01*
X167471890Y-107203569D01*
X167220000Y-107152560D01*
X165520000Y-107152560D01*
X165284683Y-107196838D01*
X165068559Y-107335910D01*
X164923569Y-107548110D01*
X164909914Y-107615541D01*
X164880054Y-107570853D01*
X164398285Y-107248946D01*
X163830000Y-107135907D01*
X163261715Y-107248946D01*
X162779946Y-107570853D01*
X162560000Y-107900026D01*
X162340054Y-107570853D01*
X161858285Y-107248946D01*
X161290000Y-107135907D01*
X160721715Y-107248946D01*
X160239946Y-107570853D01*
X160020000Y-107900026D01*
X159800054Y-107570853D01*
X159318285Y-107248946D01*
X158750000Y-107135907D01*
X158181715Y-107248946D01*
X157699946Y-107570853D01*
X157480000Y-107900026D01*
X157260054Y-107570853D01*
X156778285Y-107248946D01*
X156210000Y-107135907D01*
X155641715Y-107248946D01*
X155159946Y-107570853D01*
X154940000Y-107900026D01*
X154720054Y-107570853D01*
X154238285Y-107248946D01*
X153670000Y-107135907D01*
X153101715Y-107248946D01*
X152619946Y-107570853D01*
X152400000Y-107900026D01*
X152180054Y-107570853D01*
X151698285Y-107248946D01*
X151130000Y-107135907D01*
X150561715Y-107248946D01*
X150079946Y-107570853D01*
X149860000Y-107900026D01*
X149640054Y-107570853D01*
X149158285Y-107248946D01*
X148590000Y-107135907D01*
X148021715Y-107248946D01*
X147539946Y-107570853D01*
X147320000Y-107900026D01*
X147100054Y-107570853D01*
X146618285Y-107248946D01*
X146050000Y-107135907D01*
X145481715Y-107248946D01*
X144999946Y-107570853D01*
X144780000Y-107900026D01*
X144560054Y-107570853D01*
X144078285Y-107248946D01*
X143510000Y-107135907D01*
X142941715Y-107248946D01*
X142459946Y-107570853D01*
X142240000Y-107900026D01*
X142020054Y-107570853D01*
X141538285Y-107248946D01*
X140970000Y-107135907D01*
X140401715Y-107248946D01*
X139919946Y-107570853D01*
X139700000Y-107900026D01*
X139480054Y-107570853D01*
X138998285Y-107248946D01*
X138430000Y-107135907D01*
X137861715Y-107248946D01*
X137379946Y-107570853D01*
X137160000Y-107900026D01*
X136940054Y-107570853D01*
X136458285Y-107248946D01*
X135890000Y-107135907D01*
X135321715Y-107248946D01*
X134839946Y-107570853D01*
X134612298Y-107911553D01*
X134545183Y-107768642D01*
X134116924Y-107378355D01*
X133706890Y-107208524D01*
X133477000Y-107329845D01*
X133223000Y-107329845D01*
X132993110Y-107208524D01*
X132583076Y-107378355D01*
X132154817Y-107768642D01*
X132087702Y-107911553D01*
X131860054Y-107570853D01*
X131378285Y-107248946D01*
X130810000Y-107135907D01*
X130241715Y-107248946D01*
X129759946Y-107570853D01*
X129540000Y-107900026D01*
X129320054Y-107570853D01*
X128838285Y-107248946D01*
X128270000Y-107135907D01*
X127701715Y-107248946D01*
X127219946Y-107570853D01*
X127000000Y-107900026D01*
X126780054Y-107570853D01*
X126298285Y-107248946D01*
X125730000Y-107135907D01*
X125161715Y-107248946D01*
X124679946Y-107570853D01*
X124460000Y-107900026D01*
X124240054Y-107570853D01*
X123758285Y-107248946D01*
X123190000Y-107135907D01*
X122621715Y-107248946D01*
X122139946Y-107570853D01*
X121920000Y-107900026D01*
X121700054Y-107570853D01*
X121218285Y-107248946D01*
X120650000Y-107135907D01*
X120081715Y-107248946D01*
X119599946Y-107570853D01*
X119380000Y-107900026D01*
X119160054Y-107570853D01*
X118678285Y-107248946D01*
X118110000Y-107135907D01*
X117541715Y-107248946D01*
X117059946Y-107570853D01*
X116738039Y-108052622D01*
X116625000Y-108620907D01*
X110927000Y-108620907D01*
X110927000Y-103540907D01*
X116625000Y-103540907D01*
X116625000Y-103599093D01*
X116738039Y-104167378D01*
X117059946Y-104649147D01*
X117541715Y-104971054D01*
X118110000Y-105084093D01*
X118678285Y-104971054D01*
X119160054Y-104649147D01*
X119380000Y-104319974D01*
X119599946Y-104649147D01*
X120081715Y-104971054D01*
X120650000Y-105084093D01*
X121218285Y-104971054D01*
X121700054Y-104649147D01*
X121920000Y-104319974D01*
X122139946Y-104649147D01*
X122621715Y-104971054D01*
X123190000Y-105084093D01*
X123758285Y-104971054D01*
X124240054Y-104649147D01*
X124460000Y-104319974D01*
X124679946Y-104649147D01*
X125161715Y-104971054D01*
X125730000Y-105084093D01*
X126298285Y-104971054D01*
X126780054Y-104649147D01*
X127000000Y-104319974D01*
X127219946Y-104649147D01*
X127701715Y-104971054D01*
X128270000Y-105084093D01*
X128838285Y-104971054D01*
X129320054Y-104649147D01*
X129540000Y-104319974D01*
X129759946Y-104649147D01*
X130241715Y-104971054D01*
X130810000Y-105084093D01*
X131378285Y-104971054D01*
X131860054Y-104649147D01*
X132087702Y-104308447D01*
X132154817Y-104451358D01*
X132583076Y-104841645D01*
X132993110Y-105011476D01*
X133223000Y-104890155D01*
X133223000Y-103697000D01*
X133203000Y-103697000D01*
X133203000Y-103443000D01*
X133223000Y-103443000D01*
X133223000Y-102249845D01*
X133477000Y-102249845D01*
X133477000Y-103443000D01*
X133497000Y-103443000D01*
X133497000Y-103697000D01*
X133477000Y-103697000D01*
X133477000Y-104890155D01*
X133706890Y-105011476D01*
X134116924Y-104841645D01*
X134545183Y-104451358D01*
X134612298Y-104308447D01*
X134839946Y-104649147D01*
X135321715Y-104971054D01*
X135890000Y-105084093D01*
X136458285Y-104971054D01*
X136940054Y-104649147D01*
X137160000Y-104319974D01*
X137379946Y-104649147D01*
X137861715Y-104971054D01*
X138430000Y-105084093D01*
X138998285Y-104971054D01*
X139480054Y-104649147D01*
X139700000Y-104319974D01*
X139919946Y-104649147D01*
X140401715Y-104971054D01*
X140970000Y-105084093D01*
X141538285Y-104971054D01*
X142020054Y-104649147D01*
X142240000Y-104319974D01*
X142459946Y-104649147D01*
X142941715Y-104971054D01*
X143510000Y-105084093D01*
X144078285Y-104971054D01*
X144560054Y-104649147D01*
X144780000Y-104319974D01*
X144999946Y-104649147D01*
X145481715Y-104971054D01*
X146050000Y-105084093D01*
X146618285Y-104971054D01*
X147100054Y-104649147D01*
X147320000Y-104319974D01*
X147539946Y-104649147D01*
X148021715Y-104971054D01*
X148590000Y-105084093D01*
X149158285Y-104971054D01*
X149640054Y-104649147D01*
X149860000Y-104319974D01*
X150079946Y-104649147D01*
X150561715Y-104971054D01*
X151130000Y-105084093D01*
X151698285Y-104971054D01*
X152180054Y-104649147D01*
X152400000Y-104319974D01*
X152619946Y-104649147D01*
X153101715Y-104971054D01*
X153670000Y-105084093D01*
X154238285Y-104971054D01*
X154720054Y-104649147D01*
X154940000Y-104319974D01*
X155159946Y-104649147D01*
X155641715Y-104971054D01*
X155988330Y-105040000D01*
X155362463Y-105040000D01*
X155330327Y-105007808D01*
X154986799Y-104865162D01*
X154614833Y-104864838D01*
X154271057Y-105006883D01*
X154007808Y-105269673D01*
X153865162Y-105613201D01*
X153864838Y-105985167D01*
X154006883Y-106328943D01*
X154269673Y-106592192D01*
X154613201Y-106734838D01*
X154985167Y-106735162D01*
X155328943Y-106593117D01*
X155362118Y-106560000D01*
X167237537Y-106560000D01*
X167269673Y-106592192D01*
X167613201Y-106734838D01*
X167985167Y-106735162D01*
X168328943Y-106593117D01*
X168592192Y-106330327D01*
X168734838Y-105986799D01*
X168735162Y-105614833D01*
X168593117Y-105271057D01*
X168330327Y-105007808D01*
X167986799Y-104865162D01*
X167684554Y-104864899D01*
X167816431Y-104671890D01*
X167867440Y-104420000D01*
X167867440Y-102720000D01*
X167823162Y-102484683D01*
X167684090Y-102268559D01*
X167471890Y-102123569D01*
X167220000Y-102072560D01*
X165520000Y-102072560D01*
X165284683Y-102116838D01*
X165068559Y-102255910D01*
X164923569Y-102468110D01*
X164909914Y-102535541D01*
X164880054Y-102490853D01*
X164398285Y-102168946D01*
X163830000Y-102055907D01*
X163261715Y-102168946D01*
X162779946Y-102490853D01*
X162560000Y-102820026D01*
X162340054Y-102490853D01*
X161858285Y-102168946D01*
X161290000Y-102055907D01*
X160721715Y-102168946D01*
X160239946Y-102490853D01*
X160020000Y-102820026D01*
X159800054Y-102490853D01*
X159318285Y-102168946D01*
X158750000Y-102055907D01*
X158181715Y-102168946D01*
X157699946Y-102490853D01*
X157480000Y-102820026D01*
X157260054Y-102490853D01*
X156778285Y-102168946D01*
X156210000Y-102055907D01*
X155641715Y-102168946D01*
X155159946Y-102490853D01*
X154940000Y-102820026D01*
X154720054Y-102490853D01*
X154238285Y-102168946D01*
X153670000Y-102055907D01*
X153101715Y-102168946D01*
X152619946Y-102490853D01*
X152400000Y-102820026D01*
X152180054Y-102490853D01*
X151698285Y-102168946D01*
X151130000Y-102055907D01*
X150561715Y-102168946D01*
X150079946Y-102490853D01*
X149860000Y-102820026D01*
X149640054Y-102490853D01*
X149158285Y-102168946D01*
X148590000Y-102055907D01*
X148021715Y-102168946D01*
X147539946Y-102490853D01*
X147320000Y-102820026D01*
X147100054Y-102490853D01*
X146618285Y-102168946D01*
X146050000Y-102055907D01*
X145481715Y-102168946D01*
X144999946Y-102490853D01*
X144780000Y-102820026D01*
X144560054Y-102490853D01*
X144078285Y-102168946D01*
X143510000Y-102055907D01*
X142941715Y-102168946D01*
X142459946Y-102490853D01*
X142240000Y-102820026D01*
X142020054Y-102490853D01*
X141538285Y-102168946D01*
X140970000Y-102055907D01*
X140401715Y-102168946D01*
X139919946Y-102490853D01*
X139700000Y-102820026D01*
X139480054Y-102490853D01*
X138998285Y-102168946D01*
X138430000Y-102055907D01*
X137861715Y-102168946D01*
X137379946Y-102490853D01*
X137160000Y-102820026D01*
X136940054Y-102490853D01*
X136458285Y-102168946D01*
X135890000Y-102055907D01*
X135321715Y-102168946D01*
X134839946Y-102490853D01*
X134612298Y-102831553D01*
X134545183Y-102688642D01*
X134116924Y-102298355D01*
X133706890Y-102128524D01*
X133477000Y-102249845D01*
X133223000Y-102249845D01*
X132993110Y-102128524D01*
X132583076Y-102298355D01*
X132154817Y-102688642D01*
X132087702Y-102831553D01*
X131860054Y-102490853D01*
X131378285Y-102168946D01*
X130810000Y-102055907D01*
X130241715Y-102168946D01*
X129759946Y-102490853D01*
X129540000Y-102820026D01*
X129320054Y-102490853D01*
X128838285Y-102168946D01*
X128270000Y-102055907D01*
X127701715Y-102168946D01*
X127219946Y-102490853D01*
X127000000Y-102820026D01*
X126780054Y-102490853D01*
X126298285Y-102168946D01*
X125730000Y-102055907D01*
X125161715Y-102168946D01*
X124679946Y-102490853D01*
X124460000Y-102820026D01*
X124240054Y-102490853D01*
X123758285Y-102168946D01*
X123190000Y-102055907D01*
X122621715Y-102168946D01*
X122139946Y-102490853D01*
X121920000Y-102820026D01*
X121700054Y-102490853D01*
X121218285Y-102168946D01*
X120650000Y-102055907D01*
X120081715Y-102168946D01*
X119599946Y-102490853D01*
X119380000Y-102820026D01*
X119160054Y-102490853D01*
X118678285Y-102168946D01*
X118110000Y-102055907D01*
X117541715Y-102168946D01*
X117059946Y-102490853D01*
X116738039Y-102972622D01*
X116625000Y-103540907D01*
X110927000Y-103540907D01*
X110927000Y-100852606D01*
X119695419Y-92084187D01*
X156364752Y-92084187D01*
X156582757Y-92611800D01*
X156986077Y-93015824D01*
X157513309Y-93234750D01*
X158084187Y-93235248D01*
X158611800Y-93017243D01*
X159015824Y-92613923D01*
X159234750Y-92086691D01*
X159235248Y-91515813D01*
X159017243Y-90988200D01*
X158613923Y-90584176D01*
X158086691Y-90365250D01*
X157515813Y-90364752D01*
X156988200Y-90582757D01*
X156584176Y-90986077D01*
X156365250Y-91513309D01*
X156364752Y-92084187D01*
X119695419Y-92084187D01*
X124889803Y-86889803D01*
X124916994Y-86849410D01*
X124927000Y-86800000D01*
X124927000Y-50800000D01*
X136673000Y-50800000D01*
X136673000Y-88800000D01*
X136681685Y-88846159D01*
X136708965Y-88888553D01*
X136750590Y-88916994D01*
X136800000Y-88927000D01*
X148800000Y-88927000D01*
X148846159Y-88918315D01*
X148888553Y-88891035D01*
X148916994Y-88849410D01*
X148927000Y-88800000D01*
X148927000Y-86000000D01*
X156352560Y-86000000D01*
X156352560Y-87600000D01*
X156396838Y-87835317D01*
X156535910Y-88051441D01*
X156748110Y-88196431D01*
X157000000Y-88247440D01*
X158600000Y-88247440D01*
X158835317Y-88203162D01*
X159051441Y-88064090D01*
X159196431Y-87851890D01*
X159247440Y-87600000D01*
X159247440Y-86404187D01*
X169564752Y-86404187D01*
X169782757Y-86931800D01*
X170186077Y-87335824D01*
X170713309Y-87554750D01*
X171284187Y-87555248D01*
X171811800Y-87337243D01*
X172215824Y-86933923D01*
X172249813Y-86852069D01*
X172282757Y-86931800D01*
X172686077Y-87335824D01*
X173213309Y-87554750D01*
X173784187Y-87555248D01*
X174311800Y-87337243D01*
X174715824Y-86933923D01*
X174934750Y-86406691D01*
X174935248Y-85835813D01*
X174717243Y-85308200D01*
X174313923Y-84904176D01*
X173786691Y-84685250D01*
X173215813Y-84684752D01*
X172688200Y-84902757D01*
X172284176Y-85306077D01*
X172250187Y-85387931D01*
X172217243Y-85308200D01*
X171813923Y-84904176D01*
X171286691Y-84685250D01*
X170715813Y-84684752D01*
X170188200Y-84902757D01*
X169784176Y-85306077D01*
X169565250Y-85833309D01*
X169564752Y-86404187D01*
X159247440Y-86404187D01*
X159247440Y-86000000D01*
X159203162Y-85764683D01*
X159064090Y-85548559D01*
X158851890Y-85403569D01*
X158600000Y-85352560D01*
X157000000Y-85352560D01*
X156764683Y-85396838D01*
X156548559Y-85535910D01*
X156403569Y-85748110D01*
X156352560Y-86000000D01*
X148927000Y-86000000D01*
X148927000Y-80800000D01*
X168154928Y-80800000D01*
X168271773Y-81387419D01*
X168604519Y-81885409D01*
X169102509Y-82218155D01*
X169689928Y-82335000D01*
X169750072Y-82335000D01*
X170337491Y-82218155D01*
X170835481Y-81885409D01*
X170990000Y-81654155D01*
X171144519Y-81885409D01*
X171642509Y-82218155D01*
X172229928Y-82335000D01*
X172290072Y-82335000D01*
X172877491Y-82218155D01*
X173298026Y-81937163D01*
X173435910Y-82151441D01*
X173648110Y-82296431D01*
X173900000Y-82347440D01*
X175700000Y-82347440D01*
X175935317Y-82303162D01*
X176151441Y-82164090D01*
X176296431Y-81951890D01*
X176347440Y-81700000D01*
X176347440Y-79900000D01*
X176303162Y-79664683D01*
X176288460Y-79641834D01*
X181514543Y-79641834D01*
X181914853Y-80610658D01*
X182655443Y-81352542D01*
X183623567Y-81754542D01*
X184671834Y-81755457D01*
X185640658Y-81355147D01*
X186382542Y-80614557D01*
X186784542Y-79646433D01*
X186785457Y-78598166D01*
X186385147Y-77629342D01*
X185644557Y-76887458D01*
X184676433Y-76485458D01*
X183628166Y-76484543D01*
X182659342Y-76884853D01*
X181917458Y-77625443D01*
X181515458Y-78593567D01*
X181514543Y-79641834D01*
X176288460Y-79641834D01*
X176164090Y-79448559D01*
X175951890Y-79303569D01*
X175700000Y-79252560D01*
X173900000Y-79252560D01*
X173664683Y-79296838D01*
X173448559Y-79435910D01*
X173303569Y-79648110D01*
X173300281Y-79664344D01*
X172877491Y-79381845D01*
X172290072Y-79265000D01*
X172229928Y-79265000D01*
X171642509Y-79381845D01*
X171144519Y-79714591D01*
X170990000Y-79945845D01*
X170835481Y-79714591D01*
X170337491Y-79381845D01*
X169750072Y-79265000D01*
X169689928Y-79265000D01*
X169102509Y-79381845D01*
X168604519Y-79714591D01*
X168271773Y-80212581D01*
X168154928Y-80800000D01*
X148927000Y-80800000D01*
X148927000Y-78880000D01*
X152132968Y-78880000D01*
X152257425Y-79505687D01*
X152611848Y-80036120D01*
X153142281Y-80390543D01*
X153767968Y-80515000D01*
X153832032Y-80515000D01*
X154457719Y-80390543D01*
X154988152Y-80036120D01*
X155342575Y-79505687D01*
X155467032Y-78880000D01*
X157212968Y-78880000D01*
X157337425Y-79505687D01*
X157691848Y-80036120D01*
X158222281Y-80390543D01*
X158847968Y-80515000D01*
X158912032Y-80515000D01*
X159537719Y-80390543D01*
X160068152Y-80036120D01*
X160422575Y-79505687D01*
X160547032Y-78880000D01*
X160422575Y-78254313D01*
X160242738Y-77985167D01*
X167864838Y-77985167D01*
X168006883Y-78328943D01*
X168269673Y-78592192D01*
X168613201Y-78734838D01*
X168985167Y-78735162D01*
X169328943Y-78593117D01*
X169362118Y-78560000D01*
X172237537Y-78560000D01*
X172269673Y-78592192D01*
X172613201Y-78734838D01*
X172985167Y-78735162D01*
X173328943Y-78593117D01*
X173592192Y-78330327D01*
X173734838Y-77986799D01*
X173735162Y-77614833D01*
X173593117Y-77271057D01*
X173330327Y-77007808D01*
X172986799Y-76865162D01*
X172614833Y-76864838D01*
X172271057Y-77006883D01*
X172237882Y-77040000D01*
X169362463Y-77040000D01*
X169330327Y-77007808D01*
X168986799Y-76865162D01*
X168614833Y-76864838D01*
X168271057Y-77006883D01*
X168007808Y-77269673D01*
X167865162Y-77613201D01*
X167864838Y-77985167D01*
X160242738Y-77985167D01*
X160068152Y-77723880D01*
X159537719Y-77369457D01*
X158912032Y-77245000D01*
X158847968Y-77245000D01*
X158222281Y-77369457D01*
X157691848Y-77723880D01*
X157337425Y-78254313D01*
X157212968Y-78880000D01*
X155467032Y-78880000D01*
X155342575Y-78254313D01*
X154988152Y-77723880D01*
X154457719Y-77369457D01*
X153832032Y-77245000D01*
X153767968Y-77245000D01*
X153142281Y-77369457D01*
X152611848Y-77723880D01*
X152257425Y-78254313D01*
X152132968Y-78880000D01*
X148927000Y-78880000D01*
X148927000Y-72800000D01*
X152152560Y-72800000D01*
X152152560Y-74800000D01*
X152196838Y-75035317D01*
X152335910Y-75251441D01*
X152548110Y-75396431D01*
X152800000Y-75447440D01*
X154800000Y-75447440D01*
X155035317Y-75403162D01*
X155251441Y-75264090D01*
X155396431Y-75051890D01*
X155447440Y-74800000D01*
X155447440Y-73800000D01*
X157212968Y-73800000D01*
X157337425Y-74425687D01*
X157691848Y-74956120D01*
X158222281Y-75310543D01*
X158847968Y-75435000D01*
X158912032Y-75435000D01*
X159537719Y-75310543D01*
X160068152Y-74956120D01*
X160422575Y-74425687D01*
X160467466Y-74200000D01*
X169552560Y-74200000D01*
X169552560Y-75400000D01*
X169596838Y-75635317D01*
X169735910Y-75851441D01*
X169948110Y-75996431D01*
X170200000Y-76047440D01*
X171400000Y-76047440D01*
X171635317Y-76003162D01*
X171851441Y-75864090D01*
X171959431Y-75706042D01*
X172099515Y-75846371D01*
X172553266Y-76034785D01*
X173044579Y-76035214D01*
X173498657Y-75847592D01*
X173846371Y-75500485D01*
X174034785Y-75046734D01*
X174035214Y-74555421D01*
X173847592Y-74101343D01*
X173500485Y-73753629D01*
X173046734Y-73565215D01*
X172555421Y-73564786D01*
X172101343Y-73752408D01*
X171958392Y-73895109D01*
X171864090Y-73748559D01*
X171651890Y-73603569D01*
X171400000Y-73552560D01*
X170200000Y-73552560D01*
X169964683Y-73596838D01*
X169748559Y-73735910D01*
X169603569Y-73948110D01*
X169552560Y-74200000D01*
X160467466Y-74200000D01*
X160547032Y-73800000D01*
X160422575Y-73174313D01*
X160068152Y-72643880D01*
X159537719Y-72289457D01*
X158912032Y-72165000D01*
X158847968Y-72165000D01*
X158222281Y-72289457D01*
X157691848Y-72643880D01*
X157337425Y-73174313D01*
X157212968Y-73800000D01*
X155447440Y-73800000D01*
X155447440Y-72800000D01*
X155403162Y-72564683D01*
X155264090Y-72348559D01*
X155051890Y-72203569D01*
X154800000Y-72152560D01*
X152800000Y-72152560D01*
X152564683Y-72196838D01*
X152348559Y-72335910D01*
X152203569Y-72548110D01*
X152152560Y-72800000D01*
X148927000Y-72800000D01*
X148927000Y-63800000D01*
X158673000Y-63800000D01*
X158673000Y-69800000D01*
X158681685Y-69846159D01*
X158708965Y-69888553D01*
X158750590Y-69916994D01*
X158800000Y-69927000D01*
X178800000Y-69927000D01*
X178846159Y-69918315D01*
X178888553Y-69891035D01*
X178916994Y-69849410D01*
X178927000Y-69800000D01*
X178927000Y-63800000D01*
X178918315Y-63753841D01*
X178891035Y-63711447D01*
X178849410Y-63683006D01*
X178800000Y-63673000D01*
X158800000Y-63673000D01*
X158753841Y-63681685D01*
X158711447Y-63708965D01*
X158683006Y-63750590D01*
X158673000Y-63800000D01*
X148927000Y-63800000D01*
X148927000Y-50800000D01*
X148918315Y-50753841D01*
X148891035Y-50711447D01*
X148849410Y-50683006D01*
X148800000Y-50673000D01*
X136800000Y-50673000D01*
X136753841Y-50681685D01*
X136711447Y-50708965D01*
X136683006Y-50750590D01*
X136673000Y-50800000D01*
X124927000Y-50800000D01*
X124918315Y-50753841D01*
X124891035Y-50711447D01*
X124849410Y-50683006D01*
X124800000Y-50673000D01*
X112800000Y-50673000D01*
X112753841Y-50681685D01*
X112711447Y-50708965D01*
X112683006Y-50750590D01*
X112673000Y-50800000D01*
X112673000Y-79598198D01*
X109560000Y-76485198D01*
X109560000Y-66362463D01*
X109592192Y-66330327D01*
X109734838Y-65986799D01*
X109735162Y-65614833D01*
X109593117Y-65271057D01*
X109330327Y-65007808D01*
X108986799Y-64865162D01*
X108614833Y-64864838D01*
X108271057Y-65006883D01*
X108159660Y-65118086D01*
X107957243Y-64628200D01*
X107553923Y-64224176D01*
X107146150Y-64054854D01*
X107551800Y-63887243D01*
X107955824Y-63483923D01*
X108174750Y-62956691D01*
X108175248Y-62385813D01*
X107957243Y-61858200D01*
X107553923Y-61454176D01*
X107026691Y-61235250D01*
X106455813Y-61234752D01*
X105928200Y-61452757D01*
X105524176Y-61856077D01*
X105305250Y-62383309D01*
X105304752Y-62954187D01*
X105447224Y-63298995D01*
X105207745Y-63226861D01*
X104379605Y-64055000D01*
X105207745Y-64883139D01*
X105447410Y-64810949D01*
X105305250Y-65153309D01*
X105304752Y-65724187D01*
X105522757Y-66251800D01*
X105926077Y-66655824D01*
X106333850Y-66825146D01*
X105928200Y-66992757D01*
X105524176Y-67396077D01*
X105305250Y-67923309D01*
X105304752Y-68494187D01*
X105522757Y-69021800D01*
X105926077Y-69425824D01*
X106333850Y-69595146D01*
X105928200Y-69762757D01*
X105524176Y-70166077D01*
X105305250Y-70693309D01*
X105304752Y-71264187D01*
X105522757Y-71791800D01*
X105926077Y-72195824D01*
X106183126Y-72302560D01*
X105940000Y-72302560D01*
X105704683Y-72346838D01*
X105634977Y-72391693D01*
X105635248Y-72080813D01*
X105417243Y-71553200D01*
X105013923Y-71149176D01*
X104606150Y-70979854D01*
X105011800Y-70812243D01*
X105415824Y-70408923D01*
X105634750Y-69881691D01*
X105635248Y-69310813D01*
X105417243Y-68783200D01*
X105013923Y-68379176D01*
X104606150Y-68209854D01*
X105011800Y-68042243D01*
X105415824Y-67638923D01*
X105634750Y-67111691D01*
X105635248Y-66540813D01*
X105417243Y-66013200D01*
X105013923Y-65609176D01*
X104621940Y-65446410D01*
X104954005Y-65308864D01*
X105028139Y-65062745D01*
X104200000Y-64234605D01*
X103371861Y-65062745D01*
X103445995Y-65308864D01*
X103801938Y-65436804D01*
X103388200Y-65607757D01*
X102984176Y-66011077D01*
X102765250Y-66538309D01*
X102764752Y-67109187D01*
X102982757Y-67636800D01*
X103386077Y-68040824D01*
X103793850Y-68210146D01*
X103388200Y-68377757D01*
X102984176Y-68781077D01*
X102765250Y-69308309D01*
X102764752Y-69879187D01*
X102982757Y-70406800D01*
X103386077Y-70810824D01*
X103793850Y-70980146D01*
X103388200Y-71147757D01*
X102984176Y-71551077D01*
X102765250Y-72078309D01*
X102764752Y-72649187D01*
X102982757Y-73176800D01*
X103386077Y-73580824D01*
X103913309Y-73799750D01*
X104484187Y-73800248D01*
X105011800Y-73582243D01*
X105292560Y-73301972D01*
X105292560Y-74550000D01*
X105336838Y-74785317D01*
X105475910Y-75001441D01*
X105688110Y-75146431D01*
X105940000Y-75197440D01*
X107540000Y-75197440D01*
X107775317Y-75153162D01*
X107991441Y-75014090D01*
X108040000Y-74943022D01*
X108040000Y-76800000D01*
X108097852Y-77090839D01*
X108262599Y-77337401D01*
X112040000Y-81114802D01*
X112040000Y-85673000D01*
X95927000Y-85673000D01*
X95927000Y-81271834D01*
X102834543Y-81271834D01*
X103234853Y-82240658D01*
X103975443Y-82982542D01*
X104943567Y-83384542D01*
X105991834Y-83385457D01*
X106960658Y-82985147D01*
X107702542Y-82244557D01*
X108104542Y-81276433D01*
X108105457Y-80228166D01*
X107705147Y-79259342D01*
X106964557Y-78517458D01*
X105996433Y-78115458D01*
X104948166Y-78114543D01*
X103979342Y-78514853D01*
X103237458Y-79255443D01*
X102835458Y-80223567D01*
X102834543Y-81271834D01*
X95927000Y-81271834D01*
X95927000Y-63838223D01*
X102753035Y-63838223D01*
X102780222Y-64408454D01*
X102946136Y-64809005D01*
X103192255Y-64883139D01*
X104020395Y-64055000D01*
X103192255Y-63226861D01*
X102946136Y-63300995D01*
X102753035Y-63838223D01*
X95927000Y-63838223D01*
X95927000Y-63047255D01*
X103371861Y-63047255D01*
X104200000Y-63875395D01*
X105028139Y-63047255D01*
X104954005Y-62801136D01*
X104416777Y-62608035D01*
X103846546Y-62635222D01*
X103445995Y-62801136D01*
X103371861Y-63047255D01*
X95927000Y-63047255D01*
X95927000Y-56191834D01*
X102834543Y-56191834D01*
X103234853Y-57160658D01*
X103975443Y-57902542D01*
X104943567Y-58304542D01*
X105991834Y-58305457D01*
X106960658Y-57905147D01*
X107702542Y-57164557D01*
X108104542Y-56196433D01*
X108105457Y-55148166D01*
X107705147Y-54179342D01*
X106964557Y-53437458D01*
X105996433Y-53035458D01*
X104948166Y-53034543D01*
X103979342Y-53434853D01*
X103237458Y-54175443D01*
X102835458Y-55143567D01*
X102834543Y-56191834D01*
X95927000Y-56191834D01*
X95927000Y-52927000D01*
X105800000Y-52927000D01*
X105849410Y-52916994D01*
X105891035Y-52888553D01*
X105918315Y-52846159D01*
X105927000Y-52800000D01*
X105927000Y-41927000D01*
X152673000Y-41927000D01*
X152673000Y-51800000D01*
M02*
