M48
;DRILL file {KiCad 4.0.7} date Thu Apr 19 20:54:53 2018
;FORMAT={-:-/ absolute / inch / decimal}
FMAT,2
INCH,TZ
T1C0.016
T2C0.024
T3C0.031
T4C0.039
T5C0.047
T6C0.055
T7C0.059
T8C0.118
%
G90
G05
M72
T1
X4.0472Y-4.4409
X4.2047Y-4.7205
X4.2047Y-4.7992
X4.2047Y-4.878
X4.2047Y-4.9567
X4.2047Y-5.0354
X4.2835Y-2.5906
X4.2835Y-4.7205
X4.2835Y-4.7992
X4.2835Y-4.878
X4.2835Y-4.9567
X4.2835Y-5.0354
X4.3622Y-4.7205
X4.3622Y-4.7992
X4.3622Y-4.878
X4.3622Y-4.9567
X4.3622Y-5.0354
X4.4409Y-4.7205
X4.4409Y-4.7992
X4.4409Y-4.878
X4.4409Y-4.9567
X4.4409Y-5.0354
X4.5197Y-4.7205
X4.5197Y-4.7992
X4.5197Y-4.878
X4.5197Y-4.9567
X4.5197Y-5.0354
X4.7559Y-5.0709
X4.9528Y-4.9528
X5.1102Y-4.9134
X5.2283Y-3.9291
X5.2677Y-4.874
X5.3071Y-3.9291
X5.3465Y-4.8346
X5.3858Y-3.9291
X5.4646Y-3.9291
X5.4646Y-4.7953
X5.5433Y-3.9291
X5.5827Y-4.5591
X5.5827Y-4.7559
X5.622Y-3.9291
X5.6614Y-4.6378
X5.7008Y-3.9291
X5.7008Y-4.7165
X5.7795Y-3.9291
X5.8189Y-4.6772
X5.8583Y-3.9291
X5.8976Y-4.4016
X5.9094Y-5.2756
X5.937Y-3.9291
X5.937Y-4.4409
X5.9921Y-5.2756
X5.9961Y-5.0866
X6.0551Y-4.4016
X6.0945Y-4.1654
X6.0945Y-4.4409
X6.252Y-3.7323
X6.3307Y-3.9685
X6.3701Y-3.8504
X6.3701Y-3.9685
X6.5669Y-3.7717
X6.6063Y-4.1654
X6.6063Y-4.5197
X6.6063Y-4.5591
X6.6457Y-3.063
X6.685Y-4.2441
X6.7244Y-4.2835
X6.7638Y-3.9291
X6.7638Y-4.8346
X6.8031Y-3.063
X6.8031Y-3.8504
X6.8031Y-4.8346
X6.8425Y-3.7323
X6.8425Y-4.8346
X6.8819Y-3.6142
X6.8819Y-4.8346
X6.9213Y-3.6142
X6.9213Y-4.8346
X7.0394Y-3.6929
X7.1181Y-3.6535
X7.1181Y-3.8504
X7.1181Y-4.0866
X7.1181Y-4.2835
X7.1181Y-4.5197
X7.1969Y-2.4331
X7.1969Y-2.5118
X7.1969Y-2.5906
X7.1969Y-2.6693
X7.1969Y-2.748
X7.2756Y-2.4331
X7.2756Y-2.5118
X7.2756Y-2.5906
X7.2756Y-2.6693
X7.2756Y-2.748
X7.3543Y-2.4331
X7.3543Y-2.5118
X7.3543Y-2.5906
X7.3543Y-2.6693
X7.3543Y-2.748
X7.4331Y-2.4331
X7.4331Y-2.5118
X7.4331Y-2.5906
X7.4331Y-2.6693
X7.4331Y-2.748
X7.5118Y-2.4331
X7.5118Y-2.5118
X7.5118Y-2.5906
X7.5118Y-2.6693
X7.5118Y-2.748
T2
X6.7244Y-2.9449
X6.8031Y-2.9449
T3
X3.9094Y-3.5591
X4.2047Y-3.6142
X6.2126Y-3.4173
X6.2126Y-3.6142
X6.7323Y-3.3906
X6.8307Y-3.3906
T4
X4.1024Y-2.5219
X4.1024Y-2.6309
X4.1024Y-2.74
X4.1024Y-2.849
X4.2024Y-2.4673
X4.2024Y-2.5764
X4.2024Y-2.6854
X4.2024Y-2.7945
X4.2024Y-2.9035
X4.2185Y-5.2441
X4.2185Y-5.3441
X4.4016Y-5.2465
X4.4016Y-5.3465
X4.65Y-4.0776
X4.65Y-4.2776
X4.65Y-5.1776
X4.65Y-5.3776
X4.75Y-4.0776
X4.75Y-4.2776
X4.75Y-5.1776
X4.75Y-5.3776
X4.85Y-4.0776
X4.85Y-4.2776
X4.85Y-5.1776
X4.85Y-5.3776
X4.95Y-4.0776
X4.95Y-4.2776
X4.95Y-5.1776
X4.95Y-5.3776
X5.05Y-4.0776
X5.05Y-4.2776
X5.05Y-5.1776
X5.05Y-5.3776
X5.15Y-4.0776
X5.15Y-4.2776
X5.15Y-5.1776
X5.15Y-5.3776
X5.25Y-4.0776
X5.25Y-4.2776
X5.25Y-5.1776
X5.25Y-5.3776
X5.35Y-4.0776
X5.35Y-4.2776
X5.35Y-5.1776
X5.35Y-5.3776
X5.45Y-4.0776
X5.45Y-4.2776
X5.45Y-5.1776
X5.45Y-5.3776
X5.55Y-4.0776
X5.55Y-4.2776
X5.55Y-5.1776
X5.55Y-5.3776
X5.65Y-4.0776
X5.65Y-4.2776
X5.65Y-5.1776
X5.65Y-5.3776
X5.75Y-4.0776
X5.75Y-4.2776
X5.75Y-5.1776
X5.75Y-5.3776
X5.85Y-4.0776
X5.85Y-4.2776
X5.85Y-5.1776
X5.85Y-5.3776
X5.95Y-4.0776
X5.95Y-4.2776
X5.95Y-5.1776
X5.95Y-5.3776
X6.05Y-4.0776
X6.05Y-4.2776
X6.05Y-5.1776
X6.05Y-5.3776
X6.0551Y-2.9055
X6.0551Y-3.1055
X6.15Y-4.0776
X6.15Y-4.2776
X6.15Y-5.1776
X6.15Y-5.3776
X6.25Y-4.0776
X6.25Y-4.2776
X6.25Y-5.1776
X6.25Y-5.3776
X6.2551Y-2.9055
X6.2551Y-3.1055
X6.35Y-4.0776
X6.35Y-4.2776
X6.35Y-5.1776
X6.35Y-5.3776
X6.45Y-4.0776
X6.45Y-4.2776
X6.45Y-5.1776
X6.45Y-5.3776
X6.55Y-4.0776
X6.55Y-4.2776
X6.55Y-5.1776
X6.55Y-5.3776
X6.6819Y-3.1811
X6.7819Y-3.1811
X6.8819Y-3.1811
X7.2Y-3.3906
X7.2Y-3.4996
X7.2Y-3.6087
X7.2Y-3.7177
X7.2Y-3.8268
X7.2Y-3.9358
X7.2Y-4.0449
X7.2Y-4.1539
X7.2Y-4.263
X7.2Y-4.372
X7.2Y-4.4811
X7.2Y-4.5902
X7.2Y-4.6992
X7.3Y-3.4451
X7.3Y-3.5541
X7.3Y-3.6632
X7.3Y-3.7722
X7.3Y-3.8813
X7.3Y-3.9904
X7.3Y-4.0994
X7.3Y-4.2085
X7.3Y-4.3175
X7.3Y-4.4266
X7.3Y-4.5356
X7.3Y-4.6447
T5
X4.6575Y-2.1953
X4.6575Y-2.3921
X4.6575Y-2.9827
X4.6575Y-3.1795
X5.6614Y-2.1969
X5.6614Y-3.1831
T6
X4.0079Y-3.8898
X4.0079Y-4.185
T7
X6.252Y-1.8425
X6.4488Y-2.6299
X6.8425Y-2.6299
X7.0394Y-1.8425
T8
X4.1524Y-2.1917
X4.1524Y-3.1791
X7.25Y-3.115
X7.25Y-4.9748
T0
M30
